<svg width="92" height="26" fill="none" xmlns="http://www.w3.org/2000/svg">
  <g clip-path="url(#clip0)">
    <path d="M8.287 17.844s.488-4.856.528-5.67a2.082 2.082 0 01-1.079-1.83c0-1.15.921-2.082 2.057-2.082s2.057.931 2.057 2.081c0 .794-.44 1.484-1.084 1.834.04.807.533 5.666.533 5.666H8.287zm10.075-14.24c-.101 0-.154-.002-.207-.003L18.03 3.6A11.995 11.995 0 019.793 0 11.98 11.98 0 01.06 3.546L0 3.548V9.55c0 6.719 3.885 12.52 9.506 15.224l.138.067a.377.377 0 00.292 0c5.7-2.676 9.65-8.516 9.65-15.291V3.55l-.082-.001c-.375.036-.757.055-1.142.055v-.001z" fill="url(#paint0_linear)"/>
    <path clip-rule="evenodd" d="M8.604 12.29a2.292 2.292 0 01-1.071-1.947c0-1.264 1.011-2.288 2.26-2.288 1.249 0 2.26 1.024 2.26 2.288 0 .806-.416 1.538-1.077 1.95a137.128 137.128 0 00.258 2.826c.057.604.121 1.24.184 1.868l.062.605.023.229.023.228H8.06l.023-.23.023-.227.06-.604.182-1.865c.011-.097.011-.097.02-.195.124-1.295.208-2.227.237-2.642l-.002.004zM.061 3.755v-.001h.004-.004v.001zm.143.013V9.55c0 6.488 3.702 12.3 9.39 15.038l.123.06a.215.215 0 00.135.006c5.764-2.708 9.53-8.56 9.53-15.104V3.769c-.343.029-.682.043-1.02.043-.06 0-.093 0-.157-.002h-.052c-.031-.002-.031-.002-.063-.002l-.065-.001A12.19 12.19 0 019.793.29a12.17 12.17 0 01-8.569 3.522c-.098 0-.197 0-.302-.004a12.806 12.806 0 01-.718-.04v0z" stroke="url(#paint1_linear)" stroke-width=".5"/>
  </g>
  <path d="M37.75 4.533v1.788c-1.856-.156-2.784.621-2.784 2.409v.31h2.783v1.71h-2.783v8.704h-1.778V10.75h-1.7V9.04h1.7v-.31c0-1.399.387-2.487 1.16-3.186.773-.777 1.932-1.088 3.401-1.01zM48.495 10.361c-1.083-1.087-2.397-1.631-3.866-1.631-1.468 0-2.86.544-3.865 1.631-1.082 1.088-1.623 2.41-1.623 3.886s.54 2.875 1.623 3.885c1.082 1.088 2.396 1.632 3.865 1.632 1.469 0 2.86-.544 3.866-1.632 1.082-1.088 1.623-2.409 1.623-3.885 0-1.554-.541-2.798-1.623-3.886zm-1.315 6.606a3.671 3.671 0 01-2.628 1.088 3.671 3.671 0 01-2.628-1.088 3.71 3.71 0 01-1.083-2.642c0-1.088.387-1.943 1.083-2.643.695-.699 1.546-1.087 2.628-1.087 1.005 0 1.933.388 2.628 1.087a3.71 3.71 0 011.083 2.643c0 1.01-.387 1.865-1.083 2.642zM54.679 9.04v1.71c.618-1.321 1.7-1.943 3.247-1.943v1.943c-.928-.078-1.624.233-2.32.7-.618.543-.927 1.32-.927 2.486v5.595H52.9V9.041h1.778zM66.43 9.04v1.71h-2.784v5.673c0 .544.078.855.31 1.088.231.233.54.31.927.31h1.546v1.632c-1.623.234-2.783.078-3.479-.388-.695-.466-1.082-1.321-1.082-2.642V10.75h-2.087V9.04h2.087V6.631l1.778-.543V9.04h2.783zM69.83 7.098c-.386 0-.618-.156-.85-.389-.232-.233-.386-.544-.386-.855 0-.31.154-.621.386-.854.232-.234.541-.389.85-.389.31 0 .62.155.851.389.232.233.386.544.386.854 0 .311-.154.622-.386.855-.232.311-.464.389-.85.389zM70.758 9.04H68.98v10.491h1.778V9.041zM79.34 4.533v1.788c-1.856-.156-2.784.621-2.784 2.409v.31h2.783v1.71h-2.783v8.703h-1.778V10.75h-1.7V9.04h1.7v-.31c0-1.4.387-2.487 1.16-3.186.85-.778 2.01-1.088 3.401-1.01zM86.374 17.277l3.015-8.237h1.932L87.07 20.153c-.464 1.165-1.083 2.098-1.856 2.72-.773.621-1.7.932-2.783.854v-1.71c1.315.079 2.242-.62 2.783-2.175l.155-.389L80.885 9.04h1.933l3.556 8.238z" fill="#40484F"/>
  <defs>
    <linearGradient id="paint0_linear" x1="9.793" y1="0" x2="9.793" y2="24.87" gradientUnits="userSpaceOnUse">
      <stop stop-color="#4DA3FC"/>
      <stop offset="1" stop-color="#027EFF"/>
    </linearGradient>
    <linearGradient id="paint1_linear" x1="9.722" y1="24.663" x2="9.722" y2=".29" gradientUnits="userSpaceOnUse">
      <stop stop-color="#49A1FC"/>
      <stop offset="1" stop-color="#0680FF"/>
    </linearGradient>
    <clipPath id="clip0">
      <path d="M0 0h19.586v24.87H0V0z" fill="#fff"/>
    </clipPath>
  </defs>
</svg>
