<svg width="320" height="201" fill="none" xmlns="http://www.w3.org/2000/svg">
  <rect width="320" height="201" rx="5" fill="#F9FAFB"/>
  <mask id="a" maskUnits="userSpaceOnUse" x="0" y="0" width="320" height="201">
    <rect width="320" height="201" rx="5" fill="#fff"/>
  </mask>
  <g mask="url(#a)">
    <path d="M195.763 196.833L20.73 159.098a1394.644 1394.644 0 008.744-7.834 1822.667 1822.667 0 0023.716-21.816c18.974-17.77 42.711-40.783 61.738-61.745 19.03-20.963 35.211-41.925 46.634-57.644a673.579 673.579 0 0013.33-18.997 443.05 443.05 0 004.456-6.728l.13-.203 178.74 30.88c-.21.326-.501.776-.87 1.342a491.17 491.17 0 01-3.718 5.606 729.196 729.196 0 01-14.089 20.158c-12.123 16.763-29.405 39.303-50.039 62.415-20.635 23.112-44.116 46.229-62.442 63.57a1443.882 1443.882 0 01-22.616 20.952c-2.79 2.529-5.008 4.516-6.528 5.87-.76.677-1.346 1.196-1.741 1.546l-.412.363z" fill="#FCFCFC" stroke="#D6DBDE"/>
    <path d="M193.763 189.833L18.73 152.098a1394.644 1394.644 0 008.744-7.834 1822.667 1822.667 0 0023.716-21.816c18.974-17.77 42.711-40.783 61.738-61.745 19.03-20.963 35.211-41.925 46.634-57.644a673.513 673.513 0 0013.33-18.997 442.917 442.917 0 004.456-6.728l.13-.203 178.74 30.88c-.21.326-.501.776-.87 1.342a491.493 491.493 0 01-3.718 5.606 729.196 729.196 0 01-14.089 20.158c-12.123 16.763-29.405 39.303-50.039 62.415-20.635 23.112-44.116 46.229-62.442 63.57a1443.882 1443.882 0 01-22.616 20.952c-2.79 2.529-5.008 4.516-6.528 5.87-.76.677-1.346 1.196-1.741 1.546l-.412.363z" fill="#FCFCFC" stroke="#D6DBDE"/>
    <path d="M191.763 182.833L16.73 145.098a1394.644 1394.644 0 008.744-7.834 1822.667 1822.667 0 0023.716-21.816c18.974-17.77 42.711-40.783 61.738-61.745 19.03-20.963 35.211-41.925 46.634-57.644a673.484 673.484 0 0013.33-18.997 442.917 442.917 0 004.456-6.728l.13-.203 178.74 30.88c-.21.326-.501.776-.87 1.342a491.092 491.092 0 01-3.718 5.606 729.143 729.143 0 01-14.089 20.158c-12.123 16.763-29.405 39.303-50.039 62.415-20.635 23.112-44.116 46.229-62.442 63.57a1443.882 1443.882 0 01-22.616 20.952c-2.79 2.529-5.008 4.516-6.528 5.87-.76.677-1.346 1.196-1.741 1.546l-.412.363z" fill="#FCFCFC" stroke="#D6DBDE"/>
    <path d="M190.92 140.025c-1.743 1.038-5.727 3.026-5.29 3.44.436.413 5.573-2.224 5.976-1.637.403.587-2.489 2.252-1.554 2.753.935.501 7.316 1.29 9.975 1.758" stroke="#4DA3FC" stroke-width=".7" stroke-linecap="round"/>
    <path d="M183.088 143.295c-.312-1.064 5.407-4.091 4.909-4.179-.497-.088-6.775 3.177-7.272 3.09-2.841-.501 2.733-3.554 2.733-3.554s-1.43-.589-1.306-1.24c.123-.65-3.977 4.68-5.407 4.092-1.431-.589 2.236-3.642 2.236-3.642s-5.904 4.004-6.775 3.178c-.871-.826 4.597-5.243 9.26-5.43" stroke="#4DA3FC" stroke-width=".7"/>
    <path d="M170.078 131.635s8.686-2.421 9.681-2.245c.995.175-15.699 4.149-16.245 7.017-.789 4.143 10.518 4.16 13.721-1.863 1.401-2.634-12.605 1.401-13.515 6.182" stroke="#4DA3FC" stroke-width=".7"/>
    <path d="M57.068 140.132l-3.208.083 19.996-12.867.524 4.468-6.52 4.25-.003.001-12.093 7.783 1.747-2.964.459-.777-.902.023z" fill="#fff" stroke="#0ABE55"/>
    <path d="M71.127 144.978l-2.19 2.549 1.545-17.048 4.715-.069-.4 5.485-1.545 11.711-1.301-2.531-.34-.661-.484.564z" fill="#fff" stroke="#0ABE55"/>
    <path d="M65.933 131.84l-.1-.163-.184-.054-5.995-1.76 1.778-5.013.08-.226-.126-.204-2.592-4.189 5.581-4.046.126-.091.052-.146 1.86-5.242 7.386-1.429.108-.021.09-.065 5.759-4.174 6.266 1.839.117.034.119-.023 7.329-1.417 2.655 4.291.101.162.184.054 5.994 1.76-1.778 5.013-.08.226.126.204 2.593 4.189-5.582 4.046-.126.091-.052.147-1.859 5.241-7.387 1.429-.108.021-.09.065-5.759 4.175-6.266-1.84-.117-.034-.119.023-7.329 1.418-2.655-4.291z" fill="#FCFCFC" stroke="#0ABE55"/>
    <path fill-rule="evenodd" clip-rule="evenodd" d="M75.951 124.265l2.185.715s1.967-2.902 2.323-3.374c.636-.048 1.284-.34 1.663-.794.55-.659.328-1.411-.496-1.681-.825-.269-1.938.046-2.488.705-.378.453-.39.951-.093 1.305-.418.458-3.094 3.124-3.094 3.124zm14.007-5.527c.28.091.565.171.855.239l.058.021-2.869 3.439c-3.24 3.882-8.898 6.292-14.312 6.473a.383.383 0 01-.118-.018.282.282 0 01-.094-.051 3.892 3.892 0 00-.07-.071c-2.783-2.884-2.828-7.13.385-10.981 1.933-2.287 2.905-3.429 2.915-3.426a11.463 11.463 0 00.602.235c.07.025.142.05.215.073 2.429.795 5.287.725 7.94-.031.506 1.732 1.957 3.197 4.255 4.016l.09.031c.037.013.074.027.148.051z" fill="#009CFB"/>
    <path d="M182.494-2.099c3.57-.691 6.186-.844 7.848-.456 2.492.58-.326 2.21 2.122 2.78 2.447.57 5.878-.916 8.441-.318 2.563.597-.597 2.146 1.81 2.707 2.408.56 5.325-1.045 7.821-.463 2.496.582-.752 2.11 2.161 2.789 2.912.679 6.797-.701 9.49-.074 2.693.628-1.241 1.996 1.283 2.585 2.524.588 6.267-.825 8.813-.232 2.546.594-1.189 2.008 1.372 2.605 2.562.597 6.246-.83 8.874-.217 2.627.612-.911 2.073 1.638 2.667 2.549.594 6.04-.877 8.558-.29 2.518.586-1.147 2.017 1.514 2.637 2.662.62 6.576-.752 9.131-.157 2.554.595-1.395 1.96 1.089 2.54 2.485.578 6.378-.8 8.847-.224 2.469.575-1.403 1.958 1.029 2.525s6.286-.82 8.698-.258c2.412.561-1.506 1.934.951 2.506 2.457.573 6.319-.812 8.873-.217 2.554.595-1.115 2.026 1.345 2.599 2.46.573 6.119-.86 8.494-.306 2.375.553-1.229 1.999 1.006 2.52 1.489.347 4.133.201 7.931-.437M240.826-18.195c2.524.589 6.267-.824 8.813-.23 2.546.593-1.189 2.007 1.372 2.604 2.562.597 6.246-.83 8.874-.217 2.627.612-.911 2.073 1.638 2.667 2.549.594 6.04-.878 8.558-.29 2.518.586-1.147 2.017 1.514 2.637 2.662.62 6.576-.752 9.131-.157 2.554.595-1.395 1.96 1.089 2.54 2.485.578 6.378-.8 8.847-.224 2.469.575-1.403 1.958 1.029 2.525M176.405 8.134c3.551-.7 6.15-.858 7.8-.476 2.474.573-.333 2.207 2.097 2.77 2.43.563 5.846-.93 8.39-.34 2.545.59-.602 2.145 1.788 2.699 2.39.553 5.296-1.057 7.774-.482 2.477.574-.757 2.108 2.135 2.778 2.892.67 6.758-.717 9.431-.098 2.673.62-1.242 1.996 1.264 2.577 2.506.58 6.231-.84 8.759-.254 2.527.586-1.19 2.008 1.353 2.598 2.543.59 6.209-.845 8.818-.24 2.609.604-.913 2.072 1.618 2.658 2.53.587 6.005-.892 8.505-.312 2.5.58-1.148 2.017 1.494 2.63 2.642.612 6.538-.769 9.074-.181 2.536.588-1.395 1.96 1.072 2.532 2.466.572 6.341-.814 8.792-.246 2.451.568-1.402 1.96 1.012 2.519 2.415.56 6.25-.836 8.644-.28 2.394.554-1.503 1.935.935 2.5 2.439.565 6.283-.828 8.818-.24 2.536.588-1.116 2.025 1.326 2.59 2.442.567 6.085-.873 8.442-.326 2.358.546-1.229 1.999.989 2.513 1.479.342 4.107.19 7.883-.457M169.034 17.79c3.55-.7 6.15-.858 7.8-.476 2.474.573-.333 2.207 2.097 2.77 2.43.563 5.845-.93 8.39-.34 2.544.59-.602 2.145 1.788 2.699 2.39.553 5.295-1.057 7.773-.483 2.478.575-.756 2.109 2.136 2.78 2.892.67 6.757-.718 9.431-.099 2.673.62-1.242 1.996 1.264 2.577 2.506.58 6.231-.84 8.758-.254 2.528.586-1.189 2.008 1.354 2.598 2.543.59 6.209-.845 8.818-.24 2.609.604-.913 2.072 1.617 2.658 2.531.587 6.006-.892 8.506-.312 2.5.58-1.148 2.017 1.494 2.63 2.642.612 6.537-.769 9.073-.181 2.536.588-1.394 1.96 1.073 2.532 2.466.572 6.341-.814 8.792-.246 2.45.568-1.402 1.96 1.012 2.519 2.415.56 6.249-.836 8.644-.28 2.394.554-1.504 1.935.935 2.5s6.282-.828 8.818-.24c2.536.587-1.116 2.025 1.326 2.59 2.442.567 6.084-.873 8.442-.326 2.357.546-1.229 1.999.989 2.513 1.479.342 4.106.19 7.883-.457M162.433 26.622c3.519-.664 6.983-.375 8.598.023 2.422.596-.39 2.2 1.989 2.785 2.379.586 5.787-.87 8.278-.257 2.492.614-.654 2.135 1.686 2.71 2.34.577 5.25-1.002 7.675-.404 2.426.597-.804 2.097 2.027 2.794 2.831.697 6.68-.65 9.297-.006 2.618.645-1.279 1.98 1.174 2.584 2.454.605 6.164-.777 8.639-.167 2.475.609-1.229 1.992 1.261 2.605 2.49.614 6.144-.782 8.698-.153 2.554.629-.959 2.06 1.519 2.67 2.478.61 5.944-.832 8.392-.23 2.447.603-1.189 2.003 1.398 2.64 2.587.637 6.465-.703 8.947-.092 2.483.612-1.429 1.944.986 2.538 2.415.595 6.273-.75 8.672-.16 2.4.591-1.437 1.942.927 2.524 2.364.582 6.183-.773 8.527-.195 2.344.577-1.536 1.917.851 2.505 2.388.588 6.216-.765 8.698-.154 2.483.611-1.157 2.01 1.234 2.6 2.391.588 6.021-.813 8.329-.245 2.308.569-1.267 1.983.904 2.518 1.448.357 4.042.23 7.782-.379M153.739 36.753c3.578-.639 5.285-1.16 6.936-.746 2.476.62-.37 2.208 2.062 2.816 2.431.608 5.886-.827 8.433-.19 2.546.637-.64 2.14 1.751 2.738 2.392.599 5.337-.965 7.817-.344 2.479.62-.795 2.101 2.099 2.825 2.894.725 6.8-.598 9.475.07 2.675.67-1.28 1.981 1.228 2.608 2.508.628 6.272-.73 8.802-.098 2.529.633-1.228 1.994 1.317 2.63 2.545.637 6.251-.736 8.862-.083 2.61.653-.951 2.063 1.581 2.696 2.533.634 6.047-.787 8.549-.161 2.501.626-1.187 2.003 1.457 2.665 2.644.661 6.58-.654 9.118-.02 2.537.636-1.433 1.943 1.035 2.56 2.469.618 6.383-.703 8.836-.09 2.452.614-1.44 1.94.976 2.545s6.291-.726 8.687-.126c2.396.6-1.542 1.914.899 2.525 2.44.61 6.324-.718 8.861-.083 2.538.635-1.154 2.011 1.29 2.623 2.443.611 6.125-.768 8.485-.178 2.359.59-1.267 1.984.952 2.54 1.48.37 4.122.264 7.926-.318M145.717 45.866c3.559-.647 6.157-.766 7.796-.358 2.458.612-.377 2.205 2.037 2.806 2.414.6 5.854-.842 8.382-.213 2.528.63-.645 2.139 1.729 2.73 2.375.59 5.308-.978 7.77-.365 2.461.612-.798 2.1 2.075 2.815 2.873.715 6.76-.616 9.416.045 2.656.661-1.28 1.98 1.21 2.6 2.489.62 6.236-.747 8.747-.122 2.511.626-1.228 1.993 1.299 2.622 2.526.63 6.215-.751 8.806-.106 2.592.645-.953 2.061 1.561 2.687 2.514.626 6.013-.802 8.497-.184 2.483.618-1.188 2.003 1.437 2.657 2.625.653 6.542-.67 9.061-.044 2.519.628-1.431 1.943 1.019 2.553 2.45.61 6.346-.72 8.781-.113 2.435.606-1.439 1.94.96 2.537 2.398.597 6.255-.742 8.633-.15 2.379.593-1.54 1.916.883 2.52 2.423.602 6.288-.734 8.807-.107s-1.155 2.01 1.271 2.615c2.426.603 6.091-.783 8.433-.2 2.343.583-1.267 1.983.937 2.532 1.469.365 4.095.253 7.878-.338M136.688 56.274c3.577-.639 5.294-1.174 6.944-.76 2.475.618-.37 2.207 2.061 2.815 2.431.608 5.886-.828 8.431-.191 2.546.637-.64 2.14 1.752 2.738 2.391.599 5.335-.965 7.814-.345s-.794 2.102 2.099 2.826c2.894.723 6.799-.6 9.473.07 2.675.668-1.279 1.98 1.228 2.607 2.507.627 6.271-.732 8.8-.1 2.529.633-1.228 1.994 1.317 2.63 2.544.637 6.25-.736 8.86-.083 2.61.653-.952 2.062 1.58 2.696 2.532.633 6.047-.788 8.548-.163 2.501.626-1.187 2.004 1.457 2.665 2.643.662 6.578-.654 9.115-.02 2.537.635-1.432 1.942 1.035 2.56 2.468.617 6.382-.704 8.834-.09 2.452.613-1.44 1.94.976 2.544 2.415.604 6.29-.727 8.685-.128 2.396.6-1.542 1.915.898 2.525 2.44.61 6.323-.718 8.86-.083 2.537.634-1.154 2.011 1.289 2.622 2.443.612 6.125-.768 8.484-.178 2.358.59-1.267 1.984.952 2.539 1.479.37 4.121.264 7.924-.318M126.176 66.828c3.55-.65 6.142-.773 7.776-.367 2.45.609-.38 2.204 2.027 2.801 2.407.598 5.84-.847 8.36-.221 2.52.626-.647 2.137 1.721 2.725 2.367.588 5.295-.983 7.749-.373 2.454.61-.799 2.1 2.065 2.81 2.864.712 6.743-.623 9.391.035 2.648.657-1.28 1.98 1.202 2.597 2.482.616 6.221-.753 8.725-.132 2.504.622-1.228 1.993 1.291 2.619 2.518.626 6.2-.758 8.783-.117 2.584.642-.954 2.061 1.553 2.684 2.506.623 5.998-.808 8.474-.193s-1.188 2.003 1.429 2.653c2.617.65 6.526-.678 9.037-.054 2.512.624-1.43 1.943 1.012 2.55 2.443.606 6.331-.726 8.758-.123 2.428.603-1.438 1.94.953 2.534 2.392.594 6.24-.748 8.612-.159 2.371.589-1.54 1.916.876 2.516 2.415.6 6.272-.74 8.784-.117 2.511.624-1.156 2.011 1.263 2.612 2.419.6 6.076-.789 8.411-.209 2.335.58-1.267 1.983.93 2.529 1.465.364 4.084.248 7.858-.346M115.91 76.77c3.555-.648 6.151-.769 7.788-.361 2.456.61-.377 2.204 2.034 2.804 2.412.6 5.849-.844 8.375-.215 2.525.628-.646 2.137 1.726 2.727 2.372.59 5.304-.979 7.763-.367 2.459.611-.798 2.1 2.072 2.814 2.87.713 6.754-.619 9.407.041 2.653.66-1.279 1.98 1.208 2.599 2.487.618 6.231-.749 8.74-.125 2.508.624-1.229 1.993 1.295 2.621 2.524.628 6.21-.754 8.8-.11 2.589.644-.954 2.061 1.557 2.686 2.512.625 6.008-.804 8.489-.187 2.481.617-1.187 2.003 1.435 2.656 2.623.652 6.536-.673 9.053-.047 2.517.626-1.431 1.942 1.017 2.551 2.448.609 6.341-.721 8.773-.116 2.433.605-1.438 1.94.958 2.536 2.396.596 6.25-.744 8.626-.153 2.376.592-1.54 1.916.881 2.518 2.42.602 6.282-.736 8.799-.11 2.516.626-1.156 2.011 1.268 2.614 2.424.603 6.086-.785 8.426-.203 2.34.582-.36 2.391 1.841 2.939 1.468.365 4.091.251 7.871-.341M105.914 86.774c3.528-.66 6.102-.79 7.722-.39 2.431.6.521 2.609 2.908 3.198 2.387.59 5.802-.863 8.302-.246s-.652 2.135 1.696 2.715c2.348.58 5.263-.997 7.697-.396 2.435.6-.803 2.097 2.038 2.799 2.841.701 6.699-.642 9.325.006 2.627.648-1.279 1.98 1.182 2.588 2.462.608 6.182-.77 8.665-.157 2.483.613-1.229 1.993 1.269 2.61 2.499.616 6.161-.776 8.724-.143 2.562.633-.958 2.06 1.529 2.674 2.486.613 5.96-.825 8.416-.219 2.455.607-1.189 2.003 1.407 2.644s6.483-.696 8.974-.081c2.492.615-1.43 1.943.994 2.542 2.423.598 6.289-.744 8.697-.149 2.408.594-1.437 1.941.935 2.527 2.372.585 6.199-.766 8.551-.185 2.353.581-1.537 1.916.859 2.508 2.396.591 6.232-.758 8.723-.143 2.491.615-1.156 2.011 1.243 2.603 2.399.592 6.037-.805 8.353-.234 2.316.572-.36 2.391 1.819 2.929 1.453.359 4.054.236 7.804-.369M94.51 96.898c3.52-.663 6.088-.795 7.704-.397 1.616.398.517 2.607 2.898 3.193 2.38.587 5.789-.869 8.282-.255 2.492.614-.654 2.135 1.687 2.711 2.341.577 5.252-1.001 7.679-.403 2.427.598-.805 2.097 2.028 2.795s6.683-.649 9.302-.004c2.618.645-1.28 1.98 1.175 2.585 2.455.604 6.167-.776 8.643-.166 2.476.61-1.229 1.992 1.262 2.606 2.491.614 6.146-.781 8.702-.152 2.555.63-.959 2.06 1.52 2.67 2.479.611 5.947-.83 8.396-.227 2.449.603-1.189 2.003 1.399 2.64 2.589.638 6.468-.702 8.952-.09s-1.429 1.943.987 2.539c2.416.595 6.275-.75 8.676-.158 2.401.591-1.437 1.941.928 2.524 2.365.582 6.186-.772 8.531-.194 2.346.578-1.536 1.917.853 2.505 2.389.589 6.217-.763 8.701-.151 2.484.612-1.157 2.01 1.235 2.599 2.392.59 6.024-.811 8.333-.242 2.31.569-.36 2.391 1.813 2.926 1.448.357 4.95.639 8.692.03" stroke="#D6DBDE"/>
  </g>
</svg>
