<svg width="320" height="201" fill="none" xmlns="http://www.w3.org/2000/svg">
  <rect width="320" height="201" rx="5" fill="#F9FAFB"/>
  <mask id="a" maskUnits="userSpaceOnUse" x="0" y="0" width="320" height="201">
    <rect width="320" height="201" rx="5" fill="#fff"/>
  </mask>
  <g mask="url(#a)">
    <path d="M121.251 122.65l.377-.742-.832.015-14.556.272 41.139-21.293 10.427 9.78-41.347 21.4 4.792-9.432z" fill="#fff" stroke="#0ABE55"/>
    <path d="M168.291 134.316l-.362-.267-.304.333-8.471 9.278-3.859-33.974 19.038-2.026 3.855 33.937-9.897-7.281z" fill="#fff" stroke="#0ABE55"/>
    <path fill-rule="evenodd" clip-rule="evenodd" d="M216.369 84.28l4.52.81-1.344 3.402-6.403-.407 3.227-3.806z" fill="#fff"/>
    <path d="M167.529 115.244l-.109-.028-.11.023-15.832 3.187-8.173-9.112-.105-.117-.152-.036-13.563-3.214 1.675-9.467.042-.237-.159-.18-8.156-9.265 11.702-10.064.112-.097.042-.142 2.885-9.882 12.527-2.945.112-.026.09-.073L160.863 55l14.589 3.51.108.026.109-.022 15.498-3.15 7.953 8.809.104.115.151.036 14.386 3.46-1.54 10.52-.032.22.141.17 7.867 9.565-9.952 8.424-.145.122-.027.188-1.392 9.75-14.936 3.166-.123.026-.096.081-10.704 9.045-15.293-3.817z" fill="#fff" stroke="#0ABE55"/>
    <path d="M152.506 115.475l-.933 2.794M144.387 106.408l-.951 2.773M123.348 83.676l-.574 2.683M168.199 112.374l-.74 2.742M183.058 115.644l-.391 2.777M193.745 107.271l-.568 2.798M221.246 84.768l-.716 2.951" stroke="#0ABE55" stroke-linecap="square"/>
    <path fill-rule="evenodd" clip-rule="evenodd" d="M123.811 83.934l5.101.528-3.995 3.886-1.661-1.868.555-2.546zM215.979 83.539l4.322 2.994-.294 1.251-.986.82-3.597-2.52.555-2.545z" fill="#fff"/>
    <path d="M168.366 111.974l-.108-.026-.108.022-15.499 3.15-7.953-8.809-.104-.115-.15-.036-14.387-3.461 1.54-10.52.034-.233-.157-.174-7.792-8.631 10.29-8.393.151-.123.028-.192 1.555-10.625 15.434-3.136.121-.025.096-.078L161.863 52l14.589 3.51.108.026.109-.022 15.498-3.15 7.953 8.809.104.115.151.036 14.386 3.46-1.54 10.52-.034.234.158.174 7.792 8.631-10.291 8.393-.15.123-.029.192-1.555 10.624-15.434 3.137-.121.025-.095.078-10.506 8.569-14.59-3.51z" fill="#fff" stroke="#0ABE55"/>
    <path d="M201.304 82.896c-.709 5.256-4.639 10.15-10.542 13.785-5.894 3.63-13.691 5.96-21.988 6.114-8.3.154-15.479-1.9-20.384-5.304-4.899-3.399-7.497-8.111-6.792-13.337.71-5.255 4.639-10.149 10.542-13.784 5.894-3.63 13.691-5.96 21.988-6.114 8.3-.154 15.479 1.9 20.384 5.303 4.899 3.4 7.497 8.112 6.792 13.337z" stroke="#0ABE55"/>
    <path fill-rule="evenodd" clip-rule="evenodd" d="M165.211 87.624l3.387 1.051s2.803-3.944 3.315-4.585c.968-.047 1.938-.43 2.485-1.045.794-.893.402-1.937-.875-2.334-1.278-.397-2.957.005-3.751.897-.546.614-.531 1.301-.052 1.799-.607.618-4.509 4.217-4.509 4.217zm21.013-7.205c.434.135.876.253 1.323.357l.091.03-4.144 4.658c-4.68 5.259-13.156 8.413-21.415 8.5a.67.67 0 01-.182-.028.478.478 0 01-.147-.074 24.315 24.315 0 00-.11-.1c-4.453-4.064-4.817-9.923-.177-15.14 2.795-3.097 4.2-4.643 4.215-4.639a16.929 16.929 0 001.27.45c3.766 1.17 8.127 1.16 12.128.196.894 2.405 3.211 4.47 6.779 5.67l.139.046c.059.02.116.039.23.074z" fill="#009CFB"/>
    <path d="M7.494 210.92l.377-.742-.832.016-11.352.212 32.82-16.987 8.277 7.764-33.027 17.094 3.737-7.357z" fill="#fff" stroke="#D6DBDE"/>
    <path d="M45.478 220.227l-.362-.267-.303.333-6.704 7.342-3.083-27.149 15.193-1.616 3.08 27.111-7.82-5.754z" fill="#fff" stroke="#D6DBDE"/>
    <path fill-rule="evenodd" clip-rule="evenodd" d="M84.273 179.87l3.653.654-1.086 2.75-5.175-.329 2.608-3.075z" fill="#fff"/>
    <path d="M44.83 204.799l-.11-.027-.11.022-12.74 2.565-6.569-7.323-.104-.117-.152-.036-10.873-2.576 1.338-7.561.042-.237-.159-.18-6.526-7.414 9.382-8.07.113-.097.041-.142 2.316-7.932 10.069-2.366.112-.027.09-.073 8.452-6.894 11.744 2.825.108.026.109-.022 12.47-2.535 6.39 7.078.104.115.15.036 11.541 2.776-1.232 8.415-.032.219.14.171 6.298 7.656-7.97 6.746-.145.122-.027.189-1.115 7.812-12.004 2.544-.124.026-.096.081-8.612 7.278-12.31-3.073z" fill="#fff" stroke="#D6DBDE"/>
    <path d="M26.104 197.752l-.768 2.241M9.103 179.382l-.463 2.168M65.99 198.449l-.459 2.261M88.214 180.265l-.579 2.385" stroke="#D6DBDE" stroke-linecap="square"/>
    <path fill-rule="evenodd" clip-rule="evenodd" d="M9.477 179.591l4.123.427-3.23 3.14-1.341-1.51.448-2.057zM83.958 179.271l3.492 2.42-.237 1.011-.797.663-2.907-2.036.449-2.058z" fill="#fff"/>
    <path d="M45.505 202.157l-.108-.026-.109.022-12.47 2.535-6.39-7.079-.105-.114-.15-.037-11.54-2.776 1.231-8.414.034-.233-.157-.175-6.23-6.899 8.238-6.719.15-.123.029-.192 1.247-8.519 12.406-2.521.12-.025.096-.078 8.453-6.894 11.744 2.825.108.026.109-.022 12.47-2.535 6.39 7.078.104.115.15.036 11.541 2.776-1.232 8.415-.034.233.158.174 6.229 6.9-8.238 6.719-.15.122-.028.193-1.248 8.518-12.405 2.522-.121.024-.096.078-8.453 6.895-11.743-2.825z" fill="#fff" stroke="#D6DBDE"/>
    <path d="M72.004 178.739c-.568 4.208-3.717 8.142-8.474 11.071-4.747 2.923-11.031 4.803-17.72 4.927-6.692.123-12.472-1.533-16.416-4.269-3.937-2.732-6.011-6.508-5.448-10.686.568-4.208 3.717-8.141 8.474-11.071 4.747-2.923 11.031-4.802 17.72-4.926 6.692-.124 12.472 1.532 16.416 4.269 3.937 2.732 6.011 6.508 5.448 10.685z" stroke="#D6DBDE"/>
    <path opacity=".8" fill-rule="evenodd" clip-rule="evenodd" d="M42.932 182.572l2.738.85s2.265-3.187 2.678-3.705c.782-.038 1.566-.347 2.009-.845.641-.721.325-1.565-.708-1.886-1.032-.32-2.39.004-3.03.726-.442.496-.43 1.051-.042 1.453-.491.499-3.645 3.407-3.645 3.407zm16.981-5.821c.35.109.708.204 1.07.288l.072.024-3.348 3.764c-3.782 4.25-10.632 6.799-17.306 6.869a.508.508 0 01-.146-.023.385.385 0 01-.119-.059l-.09-.081c-3.598-3.284-3.892-8.019-.142-12.234 2.258-2.503 3.394-3.753 3.406-3.749.163.065.33.128.541.203l.216.074.269.087c3.044.945 6.568.936 9.8.158.723 1.943 2.596 3.612 5.479 4.582l.112.037.186.06z" fill="#D6DBDE"/>
    <path d="M255.174 172.009l.376-.742-.832.016-7.999.149 24.115-12.481 6.028 5.654-24.323 12.589 2.635-5.185z" fill="#fff" stroke="#D6DBDE"/>
    <path d="M283.683 178.847l-.362-.266-.303.332-4.854 5.316-2.272-20.008 11.171-1.188 2.268 19.97-5.648-4.156z" fill="#fff" stroke="#D6DBDE"/>
    <path fill-rule="evenodd" clip-rule="evenodd" d="M312.766 148.617l2.745.492-.817 2.067-3.888-.248 1.96-2.311z" fill="#fff"/>
    <path d="M283.152 167.232l-.109-.028-.111.023-9.505 1.913-4.889-5.45-.104-.117-.153-.036-8.056-1.909.985-5.567.042-.237-.159-.18-4.822-5.478 6.956-5.983.112-.096.042-.143 1.72-5.891 7.496-1.762.113-.027.089-.073 6.305-5.142 8.766 2.109.108.026.109-.022 9.302-1.891 4.755 5.267.104.114.151.037 8.563 2.06-.91 6.211-.032.219.141.171 4.655 5.659-5.897 4.991-.145.123-.026.188-.827 5.785-8.936 1.894-.123.026-.096.081-6.424 5.429-9.19-2.294z" fill="#fff" stroke="#D6DBDE"/>
    <path d="M273.981 167.563l-.568 1.696M269.049 162.056l-.577 1.684M256.272 148.251l-.348 1.629M283.511 165.679l-.45 1.666M292.535 167.666l-.237 1.686M299.026 162.58l-.346 1.699M315.727 148.914l-.435 1.792" stroke="#D6DBDE" stroke-linecap="square"/>
    <path fill-rule="evenodd" clip-rule="evenodd" d="M256.553 148.407l3.098.321-2.426 2.36-1.009-1.134.337-1.547zM312.529 148.167l2.624 1.819-.178.76-.599.498-2.184-1.531.337-1.546z" fill="#fff"/>
    <path d="M283.658 165.246l-.108-.026-.108.022-9.303 1.891-4.755-5.267-.104-.115-.15-.036-8.563-2.06.909-6.212.034-.233-.157-.174-4.594-5.089 6.089-4.966.151-.123.028-.193.925-6.315 9.238-1.878.121-.025.095-.078 6.305-5.142 8.766 2.109.108.026.109-.022 9.303-1.891 4.755 5.267.103.114.151.037 8.563 2.06-.91 6.211-.034.233.158.175 4.594 5.088-6.09 4.967-.15.123-.028.192-.925 6.316-9.238 1.877-.121.025-.096.078-6.305 5.142-8.766-2.108z" fill="#fff" stroke="#D6DBDE"/>
    <path d="M303.421 147.751c-.419 3.112-2.753 6.04-6.31 8.231-3.547 2.184-8.248 3.591-13.255 3.684-5.009.093-9.326-1.148-12.263-3.186-2.932-2.035-4.458-4.831-4.043-7.912.42-3.112 2.754-6.041 6.311-8.231 3.547-2.185 8.248-3.592 13.254-3.684 5.009-.093 9.327 1.147 12.264 3.186 2.932 2.034 4.458 4.83 4.042 7.912z" stroke="#D6DBDE"/>
    <path opacity=".8" fill-rule="evenodd" clip-rule="evenodd" d="M281.696 150.648l2.057.639s1.703-2.395 2.013-2.785c.588-.029 1.177-.261 1.51-.635.482-.542.244-1.176-.532-1.417-.776-.241-1.796.003-2.278.545-.332.373-.322.79-.031 1.092-.369.376-2.739 2.561-2.739 2.561zm12.762-4.375c.263.082.532.153.803.216l.055.018-2.516 2.829c-2.842 3.194-7.99 5.11-13.006 5.163a.401.401 0 01-.11-.017.286.286 0 01-.089-.045l-.068-.061c-2.704-2.468-2.925-6.027-.107-9.194 1.698-1.882 2.551-2.821 2.56-2.818.123.049.248.096.407.153l.162.055c.066.023.134.044.202.066 2.288.71 4.936.703 7.366.118.542 1.461 1.95 2.715 4.117 3.444l.084.028.14.045z" fill="#D6DBDE"/>
    <path d="M2.62 43.46l.377-.742-.832.016-8.986.168 26.676-13.807 6.69 6.275L-.337 49.284 2.62 43.46z" fill="#fff" stroke="#D6DBDE"/>
    <path d="M33.918 51.025l-.362-.267-.304.333-5.398 5.912-2.51-22.109 12.354-1.314 2.507 22.07-6.287-4.625z" fill="#fff" stroke="#D6DBDE"/>
    <path fill-rule="evenodd" clip-rule="evenodd" d="M65.858 17.815l3.012.54-.895 2.268-4.268-.272 2.151-2.536z" fill="#fff"/>
    <path d="M33.352 38.288l-.11-.027-.11.022-10.456 2.105-5.384-6.002-.104-.116-.152-.036-8.886-2.106 1.09-6.153.041-.237-.159-.18L3.8 19.51l7.67-6.597.112-.097.042-.142 1.895-6.492 8.253-1.94.113-.026.089-.073 6.937-5.658 9.642 2.32.108.026.109-.022 10.235-2.08 5.236 5.8.103.114.15.036 9.44 2.27-1.004 6.86-.032.22.14.17 5.138 6.247-6.506 5.507-.145.123-.027.188-.911 6.382-9.84 2.085-.122.026-.096.082-7.068 5.972-10.108-2.523z" fill="#fff" stroke="#D6DBDE"/>
    <path d="M23.3 38.604l-.622 1.861M17.89 32.562l-.635 1.847M3.869 17.413l-.382 1.788M33.758 36.537l-.494 1.828M43.66 38.717l-.26 1.85M50.782 33.137L50.401 35M69.108 18.141l-.477 1.967" stroke="#D6DBDE" stroke-linecap="square"/>
    <path fill-rule="evenodd" clip-rule="evenodd" d="M4.178 17.585l3.4.352-2.664 2.59-1.106-1.245.37-1.697zM65.598 17.322l2.88 1.995-.195.834-.658.546-2.397-1.679.37-1.696z" fill="#fff"/>
    <path d="M33.908 36.109l-.108-.026-.108.022-10.235 2.08-5.236-5.8-.104-.115-.15-.036-9.44-2.27 1.005-6.86.034-.233-.158-.175-5.075-5.621 6.722-5.482.15-.123.028-.192 1.02-6.964 10.17-2.068.12-.024.096-.078 6.937-5.658 9.643 2.32.107.025.11-.022L49.67-3.27l5.236 5.8.104.115.15.036 9.44 2.27-1.005 6.86-.034.233.158.175 5.075 5.621-6.722 5.483-.15.122-.029.193-1.02 6.963-10.17 2.068-.12.024-.096.078-6.937 5.658-9.642-2.32z" fill="#fff" stroke="#D6DBDE"/>
    <path d="M55.653 16.871c-.463 3.434-3.037 6.659-6.947 9.067-3.9 2.402-9.067 3.947-14.568 4.05-5.504.101-10.252-1.262-13.486-3.505-3.227-2.24-4.915-5.324-4.456-8.729.464-3.434 3.037-6.658 6.948-9.066 3.9-2.402 9.066-3.948 14.568-4.05 5.504-.102 10.252 1.261 13.485 3.505 3.228 2.24 4.916 5.324 4.456 8.728z" stroke="#D6DBDE"/>
    <path opacity=".8" fill-rule="evenodd" clip-rule="evenodd" d="M31.767 20.044l2.257.7s1.868-2.628 2.209-3.055c.645-.031 1.29-.286 1.656-.696.529-.595.268-1.291-.584-1.556-.851-.264-1.97.004-2.5.598-.363.41-.353.867-.033 1.199-.405.412-3.005 2.81-3.005 2.81zm14.003-4.801c.288.09.583.168.881.237l.06.02-2.761 3.105c-3.118 3.504-8.767 5.606-14.27 5.664a.442.442 0 01-.122-.019.315.315 0 01-.098-.049l-.073-.067c-2.968-2.707-3.21-6.613-.118-10.088 1.863-2.064 2.799-3.095 2.809-3.092a11.277 11.277 0 00.846.3c2.51.78 5.416.772 8.082.13.596 1.603 2.14 2.98 4.517 3.78l.093.03.154.049z" fill="#D6DBDE"/>
    <path d="M272.097 28.14l.377-.741-.832.015-5.303.1 17.113-8.857 4.219 3.957-17.32 8.965 1.746-3.438z" fill="#fff" stroke="#D6DBDE"/>
    <path d="M292.985 32.993l-.362-.266-.303.332-3.366 3.686-1.62-14.263 7.936-.844 1.616 14.225-3.901-2.87z" fill="#fff" stroke="#D6DBDE"/>
    <path fill-rule="evenodd" clip-rule="evenodd" d="M314.254 10.91l2.015.361-.599 1.517-2.855-.181 1.439-1.697z" fill="#fff"/>
    <path d="M292.548 24.445l-.109-.027-.11.022-6.903 1.39-3.538-3.945-.104-.116-.153-.036-5.792-1.373.702-3.962.042-.237-.159-.181-3.451-3.92 5.004-4.304.112-.096.042-.143 1.241-4.25 5.427-1.276.112-.026.09-.073 4.577-3.733 6.371 1.532.107.026.109-.022 6.754-1.373 3.44 3.81.104.115.15.036 6.168 1.484-.65 4.44-.032.219.14.17 3.334 4.053-4.228 3.579-.145.123-.027.188-.593 4.155-6.469 1.37-.123.027-.096.08-4.664 3.941-6.68-1.667z" fill="#fff" stroke="#D6DBDE"/>
    <path d="M285.784 24.817l-.208.762M282.164 20.775l-.383 1.029M273.005 10.958l-.142.66M292.78 23.435l-.318.912M299.404 24.892l-.223.973M304.191 21.16l-.185.78M316.096 11.336l-.18.773" stroke="#D6DBDE" stroke-linecap="square"/>
    <path fill-rule="evenodd" clip-rule="evenodd" d="M274.169 10.399l2.097.593-2.152 1.607-.843-.898.158-.76.74-.542zM314.709 10.253l.947 1.023-.217.832-.73.612-.876-1.005.876-1.462z" fill="#fff"/>
    <path d="M292.919 22.987l-.108-.026-.108.022-6.755 1.373-3.439-3.81-.104-.115-.15-.036-6.168-1.484.65-4.44.034-.232-.158-.175-3.278-3.631 4.362-3.557.15-.123.028-.192.666-4.544 6.689-1.36.121-.024.096-.078 4.577-3.734 6.37 1.533.108.026.109-.022 6.754-1.373 3.44 3.81.103.115.151.036 6.167 1.483-.65 4.44-.034.233.158.174 3.279 3.632-4.362 3.557-.151.123-.028.192-.665 4.544-6.69 1.36-.121.024-.095.078-4.577 3.733-6.371-1.532z" fill="#fff" stroke="#D6DBDE"/>
    <path d="M307.263 10.256c-.301 2.23-1.978 4.35-4.57 5.947-2.582 1.59-6.009 2.617-9.662 2.684-3.655.068-6.795-.838-8.924-2.315-2.123-1.473-3.208-3.48-2.911-5.68.301-2.23 1.978-4.35 4.57-5.947 2.582-1.59 6.009-2.617 9.662-2.685 3.656-.067 6.795.838 8.924 2.315 2.123 1.473 3.208 3.481 2.911 5.681z" stroke="#D6DBDE"/>
    <path opacity=".8" fill-rule="evenodd" clip-rule="evenodd" d="M291.448 12.4l1.51.47s1.249-1.758 1.478-2.044c.431-.021.863-.192 1.107-.466.354-.398.18-.864-.39-1.04-.569-.178-1.318.001-1.672.4-.244.273-.237.58-.023.801-.271.276-2.01 1.88-2.01 1.88zm9.367-3.21c.194.06.391.112.59.158l.041.013-1.848 2.077c-2.086 2.345-5.865 3.75-9.547 3.79a.288.288 0 01-.08-.013.21.21 0 01-.066-.033l-.049-.045c-1.985-1.811-2.148-4.424-.079-6.749 1.246-1.38 1.872-2.07 1.879-2.068a7.489 7.489 0 00.566.2c1.679.522 3.623.517 5.407.088.398 1.072 1.431 1.993 3.022 2.528l.062.02.102.033z" fill="#D6DBDE"/>
  </g>
</svg>
