<svg width="320" height="201" fill="none" xmlns="http://www.w3.org/2000/svg">
  <rect width="320" height="201" rx="5" fill="#F9FAFB"/>
  <mask id="a" maskUnits="userSpaceOnUse" x="0" y="0" width="320" height="201">
    <rect width="320" height="201" rx="5" fill="#fff"/>
  </mask>
  <g mask="url(#a)">
    <path opacity=".7" d="M52.34 101.734l-.77-3.106 68.853-1.361.068.264.368 1.434.372 1.461a114.63 114.63 0 01.162.654l.007.029a1.785 1.785 0 01-.447 1.476l-.004.005-12.719 14.331a2.935 2.935 0 01-3.169.783l-.017-.006-.018-.005-51.519-14.403a1.792 1.792 0 01-1.155-1.489l-.003-.034-.009-.033z" fill="#FCFCFC" stroke="#0ABE55"/>
    <path fill-rule="evenodd" clip-rule="evenodd" d="M118.454 103.647l8.808 2.61-9.615 10.468-8.001-2.218" fill="#FCFCFC"/>
    <path d="M118.454 103.647l8.808 2.61-9.615 10.468-8.001-2.218" stroke="#D6DBDE"/>
    <path fill-rule="evenodd" clip-rule="evenodd" d="M119.411 95.226a2.29 2.29 0 01.919 3.687l-.014.016-1.869 2.099-8.554 9.603-2.136 2.397-.014.016a3.435 3.435 0 01-3.701.909L52.354 99.766a2.29 2.29 0 01-.95-3.656l13.11-14.607a2.29 2.29 0 012.51-.65l52.387 14.373z" fill="#FCFCFC"/>
    <path d="M119.943 98.596h0l-1.869 2.099-8.554 9.603-2.136 2.398-.01.01a2.934 2.934 0 01-3.162.776l-.019-.006-.019-.006-51.668-14.18a1.79 1.79 0 01-.727-2.85l13.108-14.603h0l.005-.006a1.79 1.79 0 011.962-.509l.019.007.02.005 52.365 14.369a1.79 1.79 0 01.701 2.876l-.016.017z" stroke="#0ABE55" stroke-opacity=".7"/>
    <path opacity=".7" d="M65.16 91.137c0 .52-.565 1.113-1.5 1.113-.933 0-1.5-.593-1.5-1.113s.567-1.113 1.5-1.113c.935 0 1.5.593 1.5 1.113z" fill="#fff" stroke="#0ABE55"/>
    <path fill-rule="evenodd" clip-rule="evenodd" d="M88.876 98.9s-2.63-.88-3.083-1.01c-.394.207-.92.284-1.371.172-.658-.162-.913-.661-.572-1.115.342-.454 1.152-.691 1.809-.529.453.112.716.385.722.692.475.097 3.4.586 3.4.586l-.905 1.204zm-4.863-6.02l-.063.081a4.467 4.467 0 01-.04.05c-1.024 1.278-2.671 2.243-4.534 2.785.614 1.19.49 2.595-.518 3.934-.03.04-.06.079-.092.118l-.078.096a6.985 6.985 0 01-.212.243c-.004.005 1.134.295 3.414.871 3.841.947 8.326.212 11.564-1.653l.08-.046a.243.243 0 00.06-.055.134.134 0 00.028-.062c.184-2.655-1.967-5.058-5.84-6.013l-3.43-.847c-.01.011-.018.022-.026.033-.093.155-.197.31-.313.464z" fill="#009CFB"/>
    <path opacity=".7" d="M109.169 110.698l8.601-9.643 8.105 2.179-8.85 9.636-7.856-2.172z" fill="#FCFCFC" stroke="#0ABE55"/>
    <path d="M118.36 110.492l-2.848-.986M123.015 105.353l-2.831-1.035M119.534 108.635l-1.386-.591M120.978 106.957l-1.386-.591" stroke="#D6DBDE" stroke-linecap="square"/>
    <path d="M117.001 113.281l.161 2.64" stroke="#979797" stroke-linecap="square"/>
    <path d="M138.335 81.738a7.5 7.5 0 017.105-2.3L336.5 119.76V216.5H16.128L138.335 81.738z" fill="#FCFCFC" stroke="#D6DBDE"/>
    <path opacity=".7" d="M145.049 99.371a5.5 5.5 0 015.21-1.673l189.738 40.417-6.959 87.151-124.978-16.787-132.472-27.321c-1.898-.391-2.648-2.7-1.343-4.132l70.804-77.655z" fill="#fff" stroke="#D6DBDE"/>
    <path opacity=".5" d="M148.051 103.586a1.5 1.5 0 011.442-.465l18.126 4a.5.5 0 01.263.823l-3.082 3.421a1.501 1.501 0 01-1.422.464l-18.27-3.826a.5.5 0 01-.27-.823l3.213-3.594zM171.594 108.605a1.501 1.501 0 011.441-.465l18.126 4.001a.5.5 0 01.264.823l-3.083 3.42a1.497 1.497 0 01-1.421.464l-18.27-3.825a.5.5 0 01-.271-.823l3.214-3.595zM196.307 113.843a1.501 1.501 0 011.442-.465l18.126 4a.5.5 0 01.264.823l-3.083 3.421a1.503 1.503 0 01-1.422.464l-18.27-3.826a.5.5 0 01-.27-.823l3.213-3.594zM221.009 119.107a1.501 1.501 0 011.442-.465l18.126 4a.5.5 0 01.264.823l-3.083 3.421a1.501 1.501 0 01-1.422.464l-18.27-3.826a.5.5 0 01-.27-.823l3.213-3.594zM244.626 124.105a1.499 1.499 0 011.441-.465l18.126 4a.5.5 0 01.264.823l-3.083 3.421a1.5 1.5 0 01-1.422.464l-18.27-3.826a.5.5 0 01-.27-.823l3.214-3.594zM268.225 129.127a1.499 1.499 0 011.441-.465l18.126 4a.5.5 0 01.264.823l-3.083 3.421a1.5 1.5 0 01-1.422.464l-18.27-3.826a.5.5 0 01-.27-.823l3.214-3.594zM291.757 134.163a1.501 1.501 0 011.441-.465l18.126 4.001a.5.5 0 01.264.823l-3.083 3.42a1.497 1.497 0 01-1.421.464l-18.271-3.825a.5.5 0 01-.27-.823l3.214-3.595zM315.356 139.146a1.501 1.501 0 011.441-.465l18.126 4.001a.5.5 0 01.264.823l-3.083 3.42a1.497 1.497 0 01-1.421.464l-18.271-3.825a.5.5 0 01-.27-.823l3.214-3.595zM90.702 166.395c.36-.395.904-.569 1.427-.456l17.858 3.874a.5.5 0 01.263.826l-9.029 9.889a1.5 1.5 0 01-1.42.456l-17.904-3.81a.5.5 0 01-.265-.826l9.07-9.953zM114.39 171.367a1.503 1.503 0 011.427-.456l17.858 3.874a.5.5 0 01.264.826l-9.029 9.889c-.359.394-.9.567-1.42.456l-17.904-3.81a.5.5 0 01-.266-.826l9.07-9.953zM138.062 176.366a1.5 1.5 0 011.427-.456l17.858 3.874a.5.5 0 01.264.826l-9.029 9.889a1.5 1.5 0 01-1.42.456l-17.904-3.811a.5.5 0 01-.266-.826l9.07-9.952zM161.682 181.383c.36-.396.904-.569 1.426-.456l17.859 3.874a.5.5 0 01.263.826l-9.029 9.889a1.5 1.5 0 01-1.42.456l-17.904-3.811a.499.499 0 01-.265-.825l9.07-9.953zM185.336 186.396c.36-.395.904-.568 1.427-.455l17.858 3.874a.5.5 0 01.263.826l-9.029 9.889a1.502 1.502 0 01-1.42.456l-17.904-3.811a.5.5 0 01-.265-.826l9.07-9.953zM208.938 191.39a1.5 1.5 0 011.419-.457l96.324 20.415a.5.5 0 01.266.826l-9.024 9.884a1.5 1.5 0 01-1.418.456l-96.373-20.343a.5.5 0 01-.266-.826l9.072-9.955zM131.488 158.781a1.503 1.503 0 011.427-.456l17.858 3.874a.5.5 0 01.264.826l-9.029 9.889c-.359.394-.9.567-1.42.456l-17.904-3.81a.5.5 0 01-.266-.826l9.07-9.953zM155.177 163.753c.36-.395.904-.569 1.426-.455l17.859 3.874a.5.5 0 01.263.825l-9.029 9.889a1.497 1.497 0 01-1.42.456l-17.904-3.81a.5.5 0 01-.265-.826l9.07-9.953zM178.849 168.752c.36-.396.904-.569 1.426-.456l17.859 3.874a.5.5 0 01.263.826l-9.029 9.889a1.5 1.5 0 01-1.42.456l-17.904-3.811a.5.5 0 01-.265-.825l9.07-9.953zM202.468 173.769a1.5 1.5 0 011.427-.456l17.858 3.874a.5.5 0 01.263.826l-9.029 9.889a1.5 1.5 0 01-1.42.456l-17.904-3.811a.5.5 0 01-.265-.825l9.07-9.953zM103.214 152.728c.36-.395.902-.569 1.425-.456l22.524 4.858a.5.5 0 01.264.826l-9.028 9.888a1.502 1.502 0 01-1.42.456l-22.57-4.793a.5.5 0 01-.266-.826l9.071-9.953zM226.122 178.783a1.5 1.5 0 011.427-.456l17.858 3.874a.5.5 0 01.263.826l-9.029 9.889a1.5 1.5 0 01-1.42.456l-17.903-3.811a.5.5 0 01-.266-.826l9.07-9.952zM249.801 183.783a1.5 1.5 0 011.427-.455l17.858 3.874a.5.5 0 01.263.826l-9.029 9.889a1.501 1.501 0 01-1.42.456l-17.903-3.811a.5.5 0 01-.266-.826l9.07-9.953zM273.458 188.785c.36-.395.904-.569 1.426-.456l17.859 3.874a.5.5 0 01.263.826l-9.029 9.889a1.5 1.5 0 01-1.42.456l-17.904-3.81a.5.5 0 01-.265-.826l9.07-9.953zM297.079 194.008a1.5 1.5 0 011.427-.455l17.858 3.874a.5.5 0 01.264.826l-9.029 9.889c-.359.393-.9.566-1.42.456l-17.904-3.811a.5.5 0 01-.266-.826l9.07-9.953zM116.374 138.288a1.5 1.5 0 011.419-.457l45.44 9.615a.5.5 0 01.266.826l-9.025 9.885a1.498 1.498 0 01-1.415.457l-45.489-9.546a.5.5 0 01-.267-.826l9.071-9.954zM167.536 149.066c.36-.395.904-.569 1.426-.455l17.859 3.874a.5.5 0 01.263.825l-9.029 9.89a1.5 1.5 0 01-1.42.455l-17.904-3.81a.5.5 0 01-.265-.826l9.07-9.953zM191.194 154.08a1.5 1.5 0 011.427-.455l17.858 3.874a.5.5 0 01.264.826l-9.029 9.889c-.359.393-.9.566-1.42.456l-17.904-3.811a.5.5 0 01-.266-.826l9.07-9.953zM214.841 159.086a1.5 1.5 0 011.427-.456l17.858 3.874a.5.5 0 01.263.826l-9.029 9.889a1.5 1.5 0 01-1.42.456l-17.903-3.811a.5.5 0 01-.266-.825l9.07-9.953zM238.49 164.083a1.503 1.503 0 011.427-.456l17.858 3.874a.5.5 0 01.264.826l-9.029 9.889a1.5 1.5 0 01-1.42.456l-17.904-3.81a.5.5 0 01-.266-.826l9.07-9.953zM262.169 169.084a1.5 1.5 0 011.427-.456l17.858 3.874a.5.5 0 01.264.826l-9.029 9.889a1.5 1.5 0 01-1.42.456l-17.904-3.811a.5.5 0 01-.266-.826l9.07-9.952zM285.826 174.085a1.5 1.5 0 011.427-.455l17.858 3.874a.5.5 0 01.263.825l-9.029 9.89a1.5 1.5 0 01-1.42.455l-17.904-3.81a.5.5 0 01-.265-.826l9.07-9.953zM309.508 179.052a1.5 1.5 0 011.427-.455l17.858 3.874a.5.5 0 01.263.825l-9.029 9.89a1.5 1.5 0 01-1.42.455l-17.904-3.81a.5.5 0 01-.265-.826l9.07-9.953z" fill="#fff" stroke="#D6DBDE"/>
    <path opacity=".3" d="M320.403 199.137a1.5 1.5 0 011.427-.456l17.858 3.874a.5.5 0 01.264.826l-9.029 9.889c-.359.393-.9.567-1.421.456l-17.903-3.811a.5.5 0 01-.266-.826l9.07-9.952z" fill="#D8D8D8" stroke="#979797"/>
    <path opacity=".5" d="M128.799 124.711a1.5 1.5 0 011.418-.457l35.952 7.584a.5.5 0 01.266.826l-9.025 9.885a1.499 1.499 0 01-1.414.457l-36-7.516a.5.5 0 01-.267-.827l9.07-9.952zM170.419 133.473c.36-.395.904-.569 1.427-.456l17.858 3.874a.5.5 0 01.263.826l-9.029 9.889a1.5 1.5 0 01-1.42.456l-17.904-3.811a.5.5 0 01-.265-.825l9.07-9.953zM194.103 138.468a1.5 1.5 0 011.427-.456l17.858 3.874a.5.5 0 01.264.826l-9.029 9.889a1.5 1.5 0 01-1.42.456l-17.904-3.811a.5.5 0 01-.266-.826l9.07-9.952zM217.782 143.487c.36-.396.904-.569 1.426-.456l17.859 3.874a.5.5 0 01.263.826l-9.029 9.889a1.5 1.5 0 01-1.42.456l-17.904-3.811a.5.5 0 01-.265-.826l9.07-9.952zM241.416 148.493a1.5 1.5 0 011.427-.455l17.858 3.874a.5.5 0 01.263.826l-9.029 9.889a1.502 1.502 0 01-1.42.456l-17.903-3.811a.5.5 0 01-.266-.826l9.07-9.953zM265.13 153.5a1.5 1.5 0 011.426-.455l17.859 3.874a.5.5 0 01.263.826l-9.029 9.889a1.502 1.502 0 01-1.42.456l-17.904-3.811a.5.5 0 01-.265-.826l9.07-9.953zM288.751 158.511c.36-.396.904-.569 1.426-.456l17.859 3.874a.5.5 0 01.263.826l-9.029 9.889a1.5 1.5 0 01-1.42.456l-17.904-3.811a.5.5 0 01-.265-.826l9.07-9.952zM312.462 163.513a1.503 1.503 0 011.427-.456l17.858 3.874a.5.5 0 01.264.826l-9.029 9.889c-.359.394-.9.567-1.42.456l-17.904-3.81a.5.5 0 01-.266-.826l9.07-9.953zM141.25 111.002a1.5 1.5 0 011.418-.457l29.297 6.173a.5.5 0 01.266.826l-9.025 9.885a1.5 1.5 0 01-1.413.457l-29.344-6.106a.5.5 0 01-.268-.826l9.069-9.952zM176.323 118.344c.36-.396.903-.569 1.426-.456l17.858 3.874a.5.5 0 01.264.826l-9.029 9.889a1.5 1.5 0 01-1.42.456l-17.904-3.811a.499.499 0 01-.265-.825l9.07-9.953zM199.967 123.359a1.5 1.5 0 011.427-.456l17.858 3.874a.5.5 0 01.263.826l-9.029 9.889a1.5 1.5 0 01-1.42.456l-17.903-3.811a.5.5 0 01-.266-.825l9.07-9.953zM223.537 128.392a1.5 1.5 0 011.427-.455l17.858 3.874a.5.5 0 01.263.825l-9.029 9.89a1.5 1.5 0 01-1.42.455l-17.903-3.81a.5.5 0 01-.266-.826l9.07-9.953zM247.197 133.348a1.5 1.5 0 011.426-.455l17.859 3.874a.5.5 0 01.263.826l-9.029 9.889a1.502 1.502 0 01-1.42.456l-17.904-3.811a.5.5 0 01-.265-.826l9.07-9.953zM270.849 138.348c.36-.396.904-.569 1.426-.456l17.859 3.874a.5.5 0 01.263.826l-9.029 9.889a1.5 1.5 0 01-1.42.456l-17.904-3.811a.5.5 0 01-.265-.826l9.07-9.952zM294.475 143.396c.36-.395.904-.569 1.426-.455l17.859 3.874a.5.5 0 01.263.825l-9.029 9.89a1.5 1.5 0 01-1.42.455l-17.904-3.81a.5.5 0 01-.265-.826l9.07-9.953zM318.087 148.426c.36-.395.904-.569 1.426-.455l17.859 3.874a.5.5 0 01.263.825l-9.029 9.89a1.5 1.5 0 01-1.42.455l-17.904-3.81a.5.5 0 01-.265-.826l9.07-9.953z" fill="#fff" stroke="#D6DBDE"/>
    <path d="M141.506-25.249h205v146.884L145.875 79.501a5.5 5.5 0 01-4.369-5.382V-25.25z" fill="#FCFCFC" stroke="#D6DBDE"/>
    <path opacity=".7" d="M148.506-31.249h205v146.884l-205-43.052V-31.248z" fill="#fff" stroke="#D6DBDE"/>
    <path d="M179.879 13.746a.5.5 0 01.583-.493l29.719 4.978a.5.5 0 01.418.493v3.972a.5.5 0 01-.583.494l-29.72-4.979a.5.5 0 01-.417-.493v-3.972zM179.879 38.77a.5.5 0 01.592-.492l60.27 11.305a.5.5 0 01.408.492v8.965a.5.5 0 01-.592.491l-60.27-11.305a.5.5 0 01-.408-.491V38.77zM179.879 30.767a.5.5 0 01.591-.492l18.863 3.495a.5.5 0 01.408.492v1.966a.5.5 0 01-.591.491l-18.862-3.495a.5.5 0 01-.409-.491v-1.966zM249.879 51.77a.5.5 0 01.592-.492l60.27 11.305a.5.5 0 01.408.492v8.965a.5.5 0 01-.592.491l-60.27-11.305a.5.5 0 01-.408-.491V51.77zM249.879 43.767a.5.5 0 01.591-.492l18.863 3.495a.5.5 0 01.408.492v1.966a.5.5 0 01-.591.491l-18.862-3.495a.5.5 0 01-.409-.491v-1.966z" fill="#fff" stroke="#D6DBDE"/>
  </g>
</svg>
