<svg width="17" height="18" fill="none" xmlns="http://www.w3.org/2000/svg">
  <path d="M15.828 9c0 2.07-.793 4.047-2.196 5.522a7.486 7.486 0 01-5.306 2.321h-.122c-2.013 0-3.935-.816-5.368-2.29C1.402 13.078.609 11.102.609 9c0-2.07.793-4.078 2.227-5.553 1.433-1.474 3.355-2.29 5.368-2.29h.122a7.432 7.432 0 015.306 2.321A8.009 8.009 0 0115.828 9z" stroke="#E1E4E6" stroke-miterlimit="10"/>
  <path d="M8.234 16.78a10.143 10.143 0 01-2.684-3.45c-.64-1.35-.945-2.824-.945-4.33 0-1.506.335-2.98.945-4.33.64-1.348 1.556-2.54 2.684-3.45l.061-.063" stroke="#E1E4E6" stroke-miterlimit="10"/>
  <path d="M13.694 3.573a9.328 9.328 0 01-5.49 1.756c-1.952 0-3.874-.627-5.49-1.756M2.744 14.427a9.327 9.327 0 015.49-1.756c1.952 0 3.873.627 5.49 1.756" stroke="#E1E4E6" stroke-miterlimit="10"/>
  <path d="M8.234 1.22a10.366 10.366 0 012.806 3.702c.55 1.286.854 2.666.854 4.047a9.873 9.873 0 01-.854 4.078c-.64 1.443-1.586 2.73-2.806 3.702M.579 9h15.158M8.234 1.157v15.686" stroke="#E1E4E6" stroke-miterlimit="10"/>
</svg>
