<svg width="21" height="20" fill="none" xmlns="http://www.w3.org/2000/svg">
  <path d="M19.126 5.105a10.206 10.206 0 00-3.73-3.73C13.826.458 12.111 0 10.251 0 8.39 0 6.676.458 5.105 1.375a10.205 10.205 0 00-3.73 3.73C.458 6.675 0 8.391 0 10.25c0 2.234.652 4.243 1.955 6.027 1.304 1.784 2.988 3.018 5.052 3.703.24.045.418.014.534-.093a.522.522 0 00.173-.4l-.006-.721c-.005-.454-.007-.85-.007-1.188l-.307.053a3.921 3.921 0 01-.74.047 5.644 5.644 0 01-.928-.093 2.072 2.072 0 01-.895-.4 1.693 1.693 0 01-.587-.821l-.133-.307a3.336 3.336 0 00-.42-.68c-.192-.25-.385-.419-.581-.508l-.094-.067a.979.979 0 01-.173-.16.732.732 0 01-.12-.187c-.027-.062-.005-.114.067-.154.07-.04.2-.06.387-.06l.266.04c.178.036.399.143.661.32.263.179.478.41.647.695.205.365.452.643.741.834.29.191.58.287.874.287.294 0 .547-.023.761-.067.214-.044.414-.111.6-.2.08-.596.299-1.055.655-1.375a9.144 9.144 0 01-1.368-.24 5.448 5.448 0 01-1.255-.521 3.592 3.592 0 01-1.074-.894c-.285-.356-.519-.823-.701-1.402-.182-.578-.274-1.245-.274-2.002 0-1.077.352-1.993 1.055-2.75-.33-.809-.298-1.717.093-2.722.258-.08.641-.02 1.148.18.507.2.879.372 1.115.514.235.142.424.263.567.36a9.477 9.477 0 012.563-.347c.88 0 1.735.116 2.563.347l.507-.32a7.18 7.18 0 011.227-.587c.472-.178.833-.227 1.082-.147.4 1.006.436 1.913.106 2.723.703.756 1.055 1.673 1.055 2.75 0 .756-.091 1.425-.274 2.008-.182.583-.418 1.05-.707 1.402-.29.351-.65.647-1.081.887-.432.24-.85.414-1.255.52-.405.107-.86.188-1.368.241.463.4.694 1.032.694 1.895v2.816c0 .16.056.294.167.4.111.107.287.139.527.094 2.065-.685 3.749-1.92 5.052-3.704 1.304-1.784 1.956-3.792 1.956-6.026-.001-1.86-.46-3.574-1.376-5.145z" fill="#B6C3CC"/>
</svg>
