<svg width="20" height="20" fill="none" xmlns="http://www.w3.org/2000/svg">
  <path d="M10 0C4.486 0 0 4.486 0 10s4.486 10 10 10 10-4.486 10-10S15.514 0 10 0zm-.586 4.908a13.672 13.672 0 01-2.616-.367c.134-.319.28-.625.438-.915.646-1.19 1.439-2.026 2.178-2.329v3.611zm0 1.173v3.333h-3.66c.052-1.3.274-2.592.64-3.767.972.245 1.992.393 3.02.434zm0 4.505v3.333c-1.028.04-2.048.189-3.02.434a14.726 14.726 0 01-.64-3.767h3.66zm0 4.506v3.61c-.74-.302-1.532-1.137-2.178-2.328-.158-.29-.304-.596-.438-.915a13.67 13.67 0 012.616-.367zm1.172 0c.891.038 1.774.163 2.616.367-.134.319-.28.625-.438.915-.646 1.19-1.439 2.026-2.178 2.329v-3.611zm0-1.173v-3.333h3.66a14.726 14.726 0 01-.64 3.767 14.837 14.837 0 00-3.02-.434zm0-4.505V6.081a14.837 14.837 0 003.02-.434c.367 1.175.588 2.466.64 3.767h-3.66zm0-4.506v-3.61c.74.302 1.532 1.137 2.178 2.328.158.29.304.596.438.915-.842.204-1.725.33-2.616.367zm3.208-1.841a8.901 8.901 0 00-.948-1.424 8.84 8.84 0 013.125 1.86c-.509.274-1.057.51-1.634.708a11.88 11.88 0 00-.543-1.144zm-7.588 0c-.198.364-.379.747-.543 1.144a11.088 11.088 0 01-1.634-.707 8.839 8.839 0 013.125-1.861 8.9 8.9 0 00-.948 1.424zm-.94 2.246c-.4 1.28-.634 2.674-.685 4.101h-3.39a8.787 8.787 0 012.005-5.032c.636.365 1.333.677 2.07.93zm-.685 5.273a15.69 15.69 0 00.686 4.101c-.738.254-1.435.566-2.072.931a8.787 8.787 0 01-2.003-5.032h3.39zm1.082 5.203c.164.397.345.78.543 1.144.293.54.612 1.018.948 1.424a8.836 8.836 0 01-3.125-1.86c.509-.273 1.057-.51 1.634-.708zm8.131 1.144c.198-.364.379-.747.543-1.144.577.198 1.125.435 1.634.707a8.838 8.838 0 01-3.125 1.861c.336-.406.655-.883.948-1.424zm.94-2.246c.4-1.28.634-2.674.685-4.101h3.39a8.786 8.786 0 01-2.005 5.032 12.059 12.059 0 00-2.07-.93zm.685-5.273a15.69 15.69 0 00-.686-4.101 12.052 12.052 0 002.072-.931 8.786 8.786 0 012.003 5.032h-3.39z" fill="#B6C3CC"/>
</svg>
