<svg width="38" height="48" viewBox="0 0 38 48" fill="none" xmlns="http://www.w3.org/2000/svg">
<path d="M16.0788 34.44C16.0788 34.44 17.0256 25.0688 17.1032 23.496C15.8571 22.8192 15.01 21.4896 15.01 19.9632C15.01 17.744 16.796 15.9472 19 15.9472C21.204 15.9472 22.99 17.744 22.99 19.9632C22.99 21.4944 22.1382 22.8272 20.8873 23.5024C20.9665 25.0608 21.9213 34.4384 21.9213 34.4384H16.0788V34.44ZM35.625 6.9552C35.4287 6.9552 35.3273 6.952 35.2244 6.9504L34.9822 6.9456C28.7169 6.768 23.1008 4.144 19 0C14.7535 4.296 8.873 6.9552 2.375 6.9552C2.18183 6.9552 1.98867 6.952 1.79708 6.9472C1.63875 6.944 1.48042 6.9376 1.32525 6.9312C0.85975 6.9088 0.486083 6.8832 0.117167 6.8448L0 6.848V18.432C0 31.4 7.53667 42.5952 18.4427 47.816L18.7118 47.944C18.8037 47.9792 18.8987 48 19 48C19.0982 48 19.1932 47.9808 19.2787 47.9456C30.3367 42.7808 38 31.5088 38 18.432V6.8544C37.9462 6.8544 37.8939 6.8544 37.8417 6.8512C37.1133 6.9216 36.3723 6.9584 35.625 6.9584V6.9552Z" fill="url(#paint0_linear)"/>
<defs>
<linearGradient id="paint0_linear" x1="19" y1="0" x2="19" y2="48" gradientUnits="userSpaceOnUse">
<stop stop-color="#4DA3FC"/>
<stop offset="1" stop-color="#027EFF"/>
</linearGradient>
</defs>
</svg>
