<svg width="50" height="50" fill="none" xmlns="http://www.w3.org/2000/svg">
  <path fill-rule="evenodd" clip-rule="evenodd" d="M25 50c13.807 0 25-11.193 25-25S38.807 0 25 0 0 11.193 0 25s11.193 25 25 25z" fill="#B6C3CC"/>
  <path d="M23.14 29.717v-.492c0-1.091.165-1.983.493-2.675.337-.692.953-1.433 1.85-2.222l1.21-1.051c.639-.541 1.096-1.078 1.37-1.61.276-.533.413-1.145.413-1.837 0-1.126-.372-2.022-1.117-2.688-.737-.665-1.708-.998-2.915-.998-.7 0-1.357.08-1.969.24-.612.15-1.273.4-1.983.745L20 16.064c.976-.425 1.792-.71 2.448-.851a9.799 9.799 0 012.05-.213c1.623 0 2.9.44 3.832 1.317.932.87 1.397 2.067 1.397 3.593 0 .603-.08 1.131-.24 1.584-.159.452-.385.873-.678 1.264-.284.381-.63.754-1.038 1.118-.408.354-.86.74-1.357 1.157-.568.48-1.007.918-1.318 1.318-.301.39-.523.803-.665 1.237-.133.435-.2 1.082-.2 1.943v.186h-1.09zm-.439 3.979c0-.87.355-1.304 1.065-1.304.727 0 1.091.435 1.091 1.304 0 .87-.364 1.304-1.091 1.304-.71 0-1.065-.435-1.065-1.304z" fill="#fff"/>
</svg>
