<svg width="20" height="20" fill="none" xmlns="http://www.w3.org/2000/svg">
  <path fill-rule="evenodd" clip-rule="evenodd" d="M7.5 1.875a5.625 5.625 0 100 11.25 5.625 5.625 0 000-11.25zm12.282 16.329c-.52.671-.803.948-1.46 1.488a1.245 1.245 0 01-1.696-.05c-.232-.227-2.896-2.9-3.12-3.118a1.248 1.248 0 01-.235-1.485l-1.426-1.426A7.501 7.501 0 117.5 0a7.501 7.501 0 016.113 11.845l1.426 1.426a1.25 1.25 0 011.48.23c.221.224 2.895 2.891 3.121 3.121.224.227.36.537.36.878 0 .261-.069.512-.218.704z" fill="#B6C3CC"/>
</svg>
