<svg width="23" height="18" fill="none" xmlns="http://www.w3.org/2000/svg">
  <path d="M22.661 2.13a9.078 9.078 0 01-2.61.716A4.564 4.564 0 0022.05.332c-.88.521-1.852.899-2.888 1.104a4.546 4.546 0 00-7.746 4.144c-3.778-.19-7.128-2-9.37-4.75a4.511 4.511 0 00-.614 2.286c0 1.577.803 2.968 2.021 3.783a4.546 4.546 0 01-2.059-.57v.056a4.55 4.55 0 003.646 4.457c-.38.103-.782.16-1.198.16-.293 0-.577-.03-.855-.085a4.548 4.548 0 004.245 3.157 9.12 9.12 0 01-5.645 1.943c-.367 0-.729-.022-1.084-.062A12.85 12.85 0 007.469 18c8.363 0 12.934-6.926 12.934-12.933l-.015-.589A9.078 9.078 0 0022.66 2.13z" fill="#B6C3CC"/>
</svg>
