<svg width="50" height="50" viewBox="0 0 43 50" fill="none" xmlns="http://www.w3.org/2000/svg">
  <path d="M41.378 40.146c-1.467-.6-2.094-1.398-2.033-2.587.062-1.387-.725-2.404-1.099-2.806.226-.863.886-3.848 0-6.44-.95-2.776-3.856-7.015-6.853-11.182-1.227-1.711-1.285-3.571-1.352-5.725-.064-2.054-.137-4.383-1.283-6.971C27.513 1.616 25.014 0 21.901 0c-1.852 0-3.753.579-5.215 1.588-2.995 2.067-2.6 6.573-2.337 9.555.035.409.07.795.089 1.124.174 2.92.016 4.46-.192 4.928-.134.306-.795 1.176-1.495 2.097-.723.953-1.543 2.033-2.215 3.04-.803 1.21-1.45 3.061-2.076 4.851-.459 1.31-.891 2.547-1.313 3.287a4.475 4.475 0 00-.434 3.361c-.302.21-.739.624-1.107 1.403-.446.95-1.35 1.462-3.23 1.823-.864.177-1.46.54-1.771 1.08-.453.785-.207 1.772.019 2.447.332.991.125 1.619-.252 2.758-.087.263-.185.56-.285.89-.157.517-.1.989.168 1.4.71 1.085 2.782 1.468 4.915 1.72 1.273.15 2.667.66 4.015 1.153 1.32.482 2.686.982 3.928 1.133.189.024.376.036.556.036 1.874 0 2.721-1.244 2.99-1.755.673-.137 2.995-.577 5.388-.636 2.39-.069 4.702.403 5.357.55.206.394.748 1.294 1.614 1.758.475.26 1.137.409 1.815.409.724 0 2.101-.171 3.191-1.318 1.087-1.152 3.804-2.623 5.787-3.697.443-.24.857-.464 1.22-.666 1.114-.618 1.723-1.5 1.668-2.422-.045-.765-.551-1.436-1.321-1.751zm-24.668-.222c-.138-.977-1.395-1.946-2.85-3.068-1.191-.918-2.54-1.957-2.912-2.838-.768-1.817-.162-5.011.893-6.656.522-.824.948-2.073 1.36-3.28.445-1.305.905-2.654 1.42-3.244.815-.922 1.568-2.715 1.701-4.128.763.729 1.947 1.653 3.04 1.653.17 0 .333-.022.489-.066.748-.216 1.849-.852 2.913-1.467.917-.53 2.049-1.184 2.475-1.243.73 1.048 4.971 10.435 5.405 13.45.343 2.385-.02 4.357-.202 5.129a3.774 3.774 0 00-.505-.036c-1.181 0-1.494.645-1.575 1.03-.21 1-.232 4.2-.234 4.918-.427.543-2.588 3.1-5.69 3.559a24.634 24.634 0 01-3.506.276c-.91 0-1.49-.07-1.73-.106l-1.559-1.784c.615-.303 1.23-.944 1.067-2.099zm1.978-29.408a2.44 2.44 0 00-.143.068 2.936 2.936 0 00-.033-.32c-.17-.98-.82-1.69-1.544-1.69a1.09 1.09 0 00-.167.012c-.43.072-.769.396-.954.855.162-1.007.733-1.753 1.41-1.753.795 0 1.467 1.071 1.467 2.34 0 .16-.012.319-.036.488zm6.178.755c.073-.231.112-.482.112-.742 0-1.15-.73-2.051-1.66-2.051-.91 0-1.651.92-1.651 2.05 0 .078.004.155.01.232l-.14-.054a3.137 3.137 0 01-.158-.986c0-1.375.879-2.494 1.959-2.494s1.96 1.119 1.96 2.494c0 .572-.159 1.118-.432 1.551zm-.796 2.677c-.016.07-.049.1-.415.29a11.17 11.17 0 00-.703.392l-.193.116c-.773.47-2.584 1.568-3.076 1.632-.334.045-.54-.085-1.005-.4a14.766 14.766 0 00-.335-.223c-.837-.55-1.376-1.155-1.436-1.392.273-.21.949-.739 1.295-1.051.704-.654 1.411-1.093 1.761-1.093.019 0 .035.001.053.004.411.073 1.426.478 2.168.774.342.136.638.255.846.33.656.225.998.513 1.04.62zM29.963 44.5c.37-1.669.796-3.94.727-5.278a33.847 33.847 0 00-.069-.955c-.049-.598-.12-1.488-.046-1.751a.318.318 0 01.049-.018c.003.765.17 2.291 1.39 2.824.364.158.78.239 1.236.239 1.222 0 2.58-.6 3.135-1.156.327-.327.602-.727.795-1.044.042.123.068.284.054.492-.072 1.129.476 2.626 1.52 3.178l.152.08c.372.195 1.36.714 1.376.96 0 0-.009.029-.064.08-.247.226-1.118.67-1.96 1.1-1.494.763-3.186 1.627-3.947 2.427-1.07 1.127-2.281 1.883-3.012 1.883a.793.793 0 01-.24-.033c-.794-.248-1.448-1.394-1.096-3.028zM2.895 40.242c-.08-.379-.145-.678-.076-.968.05-.214 1.11-.445 1.563-.543.636-.138 1.295-.28 1.725-.542.582-.353.897-1.003 1.176-1.577.2-.415.409-.844.656-.985a.14.14 0 01.076-.017c.463 0 1.436.974 1.996 1.846.142.22.406.66.71 1.17.911 1.525 2.159 3.612 2.81 4.312.587.629 1.537 1.838 1.304 2.876-.171.804-1.083 1.459-1.298 1.603a1.33 1.33 0 01-.288.027c-1.247 0-3.715-1.037-5.04-1.595l-.197-.082c-.74-.31-1.95-.506-3.119-.695-.93-.15-2.203-.357-2.415-.543-.17-.192.028-.816.203-1.367.126-.396.256-.805.327-1.233.102-.684-.017-1.24-.113-1.687z" fill="#0097FC"/>
</svg>
