<svg width="38" height="54" fill="none" xmlns="http://www.w3.org/2000/svg">
  <path fill-rule="evenodd" clip-rule="evenodd" d="M9.344 9.656C9.344 4.323 13.667 0 19 0s9.656 4.323 9.656 9.656v4.137l-8.655.01 3.573-.01v-3.92a4.574 4.574 0 00-9.148 0v3.935l-5.082.006V9.656zM0 23.698a8 8 0 018-8h22a8 8 0 018 8v3.97h-.036c.024.167.036.338.036.512 0 1.983-1.595 3.591-3.563 3.591-1.967 0-3.562-1.608-3.562-3.59 0-.175.012-.346.036-.514h-.036v.212a5 5 0 00-5-5h-14.09a5 5 0 00-5 5V42.16a5 5 0 005 5h19.09V41.69h.036a3.645 3.645 0 01-.036-.513c0-1.984 1.595-3.591 3.563-3.591 1.967 0 3.562 1.607 3.562 3.59 0 .175-.012.346-.036.514H38V46a8 8 0 01-8 8H8a8 8 0 01-8-8V23.698zm9.344 6.2a4.78 4.78 0 014.781-4.782h9.127a4.783 4.783 0 014.583 3.415h.198v16.05H15.49a6.147 6.147 0 010-12.293h7.87v-2.39H9.344zm14.017 7.512h-9.345v2.049h9.345V37.41z" fill="#53575B"/>
</svg>
