<svg xmlns="http://www.w3.org/2000/svg" width="866.685" height="1000" fill="#53575B">
  <path style="line-height:normal;font-variant-ligatures:normal;font-variant-position:normal;font-variant-caps:normal;font-variant-numeric:normal;font-variant-alternates:normal;font-feature-settings:normal;text-indent:0;text-align:start;text-decoration-line:none;text-decoration-style:solid;text-transform:none;text-orientation:mixed;white-space:normal;shape-padding:0;isolation:auto;mix-blend-mode:normal;solid-opacity:1" d="M446.71 0C266.436 0 111.604 128.699 78.749 305.94c-32.855 177.242 65.55 352.946 233.863 417.548a14.97 14.97 0 0019.34-8.611l84.028-218.95a14.97 14.97 0 00-8.612-19.337c-49.485-18.998-78.253-70.372-68.592-122.48 9.661-52.109 54.927-89.735 107.936-89.735 53.009 0 98.274 37.626 107.935 89.734 9.662 52.11-19.106 103.483-68.591 122.48a14.97 14.97 0 00-8.612 19.339l84.028 218.949a14.97 14.97 0 0019.34 8.611c168.313-64.602 266.718-240.306 233.863-417.549C781.819 128.7 626.987 0 446.71 0zm0 29.938c166.047 0 308.267 118.22 338.526 281.458 29.346 158.312-54.79 314.886-201.297 378.47l-73.5-191.522c54.322-27.855 84.979-88.553 73.643-149.694-12.257-66.11-70.133-114.212-137.371-114.212-67.239 0-125.114 48.103-137.371 114.212-11.336 61.14 19.32 121.839 73.642 149.694l-73.5 191.521C162.976 626.282 78.84 469.708 108.186 311.396 138.444 148.158 280.665 29.937 446.71 29.937z" font-weight="400" font-family="sans-serif" text-anchor="middle" overflow="visible"/>
  <g aria-label="open" style="line-height:0%;-inkscape-font-specification:Sans" font-weight="400" font-family="OpenSymbol" letter-spacing="0" word-spacing="0" font-size="35.155">
    <path d="M71.164 817.22q0 19.21-9.663 30.328-9.664 11.118-25.884 11.118-16.36 0-26.023-11.118Q0 836.43 0 817.219q0-19.21 9.594-30.328 9.664-11.188 26.023-11.188 16.22 0 25.884 11.188 9.663 11.118 9.663 30.328zm-13.39 0q0-15.27-5.868-22.659-5.867-7.459-16.29-7.459-10.56 0-16.427 7.459-5.798 7.389-5.798 22.658 0 14.778 5.867 22.448 5.867 7.6 16.359 7.6 10.353 0 16.22-7.53 5.937-7.6 5.937-22.518zM159.17 816.234q0 9.57-2.691 17.522-2.692 7.88-7.593 13.37-4.556 5.207-10.768 8.092-6.143 2.815-13.045 2.815-6.006 0-10.906-1.337-4.832-1.337-9.87-4.152v32.932H91.318V777.884h12.977v8.233q5.177-4.433 11.596-7.389 6.489-3.025 13.805-3.025 13.943 0 21.674 10.766 7.8 10.696 7.8 29.765zm-13.39.352q0-14.214-4.763-21.251-4.762-7.037-14.633-7.037-5.591 0-11.251 2.463-5.66 2.463-10.837 6.474v44.543q5.522 2.533 9.457 3.447 4.003.915 9.042.915 10.837 0 16.91-7.459 6.075-7.459 6.075-22.095zM243.933 818.556h-56.807q0 7.248 2.14 12.666 2.14 5.348 5.867 8.796 3.589 3.378 8.49 5.067 4.97 1.689 10.905 1.689 7.87 0 15.807-3.167 8.007-3.237 11.39-6.333h.69V851.7q-6.558 2.815-13.391 4.715-6.834 1.9-14.358 1.9-19.188 0-29.956-10.555-10.768-10.626-10.768-30.117 0-19.281 10.285-30.61 10.353-11.33 27.195-11.33 15.6 0 24.02 9.29 8.49 9.288 8.49 26.387zM231.3 808.423q-.069-10.414-5.176-16.114-5.04-5.7-15.393-5.7-10.423 0-16.635 6.263-6.143 6.263-6.971 15.551zM328.074 856.484h-12.977v-44.753q0-5.419-.62-10.133-.622-4.785-2.279-7.46-1.725-2.955-4.97-4.362-3.244-1.478-8.42-1.478-5.315 0-11.113 2.674-5.799 2.674-11.113 6.826v58.686h-12.977v-78.6h12.977v8.726q6.074-5.137 12.562-8.022 6.488-2.885 13.322-2.885 12.493 0 19.05 7.67 6.558 7.67 6.558 22.095z" style="line-height:1.25;-inkscape-font-specification:Sans"/>
  </g>
  <g aria-label="source" style="line-height:0%;-inkscape-font-specification:Sans" font-weight="400" font-family="OpenSymbol" letter-spacing="0" word-spacing="0" font-size="35.155">
    <path d="M474.004 831.25q0 10.767-8.766 17.663-8.697 6.896-23.814 6.896-8.559 0-15.737-2.04-7.11-2.112-11.942-4.575v-14.847h.69q6.144 4.715 13.667 7.53 7.524 2.744 14.427 2.744 8.559 0 13.39-2.815 4.832-2.815 4.832-8.866 0-4.645-2.623-7.037-2.623-2.393-10.077-4.081-2.761-.634-7.248-1.478-4.418-.845-8.076-1.83-10.147-2.744-14.426-8.022-4.21-5.348-4.21-13.088 0-4.855 1.932-9.148 2.002-4.292 6.005-7.67 3.866-3.307 9.802-5.207 6.005-1.97 13.39-1.97 6.903 0 13.943 1.759 7.11 1.689 11.804 4.152v14.143h-.69q-4.97-3.73-12.08-6.262-7.11-2.604-13.943-2.604-7.11 0-12.01 2.815-4.9 2.744-4.9 8.233 0 4.855 2.967 7.318 2.9 2.463 9.388 4.011 3.589.844 8.006 1.689 4.487.844 7.455 1.548 9.042 2.11 13.943 7.248 4.9 5.207 4.9 13.792zM558.352 814.644q0 19.21-9.664 30.328-9.663 11.119-25.884 11.119-16.359 0-26.022-11.119-9.595-11.118-9.595-30.328t9.595-30.328q9.663-11.189 26.022-11.189 16.22 0 25.884 11.189 9.664 11.118 9.664 30.328zm-13.39 0q0-15.27-5.868-22.658-5.867-7.46-16.29-7.46-10.56 0-16.428 7.46-5.798 7.388-5.798 22.658 0 14.777 5.867 22.447 5.867 7.6 16.36 7.6 10.353 0 16.22-7.53 5.936-7.6 5.936-22.517zM642.424 853.91h-12.977v-8.726q-6.557 5.277-12.562 8.092-6.005 2.815-13.253 2.815-12.148 0-18.913-7.53-6.764-7.6-6.764-22.236v-51.016h12.976v44.753q0 5.982.553 10.274.552 4.222 2.346 7.248 1.864 3.096 4.832 4.503 2.968 1.408 8.628 1.408 5.04 0 10.975-2.674 6.005-2.674 11.182-6.826V775.31h12.977zM716.073 789.734h-.69q-2.9-.704-5.66-.985-2.692-.352-6.42-.352-6.005 0-11.596 2.744-5.59 2.674-10.767 6.967v55.801h-12.977v-78.6h12.977v11.61q7.73-6.333 13.597-8.936 5.936-2.674 12.08-2.674 3.382 0 4.9.21 1.519.141 4.556.634zM785.443 848.983q-6.489 3.167-12.356 4.926-5.798 1.76-12.355 1.76-8.352 0-15.323-2.464-6.972-2.533-11.942-7.6-5.039-5.066-7.8-12.806-2.76-7.74-2.76-18.085 0-19.28 10.353-30.258 10.423-10.977 27.472-10.977 6.626 0 12.977 1.9 6.419 1.9 11.734 4.644v14.707h-.69q-5.937-4.715-12.287-7.248-6.281-2.533-12.286-2.533-11.044 0-17.463 7.6-6.35 7.529-6.35 22.165 0 14.215 6.212 21.885 6.28 7.6 17.6 7.6 3.935 0 8.008-1.056 4.072-1.056 7.316-2.744 2.83-1.478 5.315-3.097 2.485-1.688 3.935-2.885h.69zM866.685 815.981h-56.808q0 7.248 2.14 12.666 2.14 5.348 5.867 8.796 3.59 3.378 8.49 5.067 4.97 1.688 10.906 1.688 7.87 0 15.807-3.166 8.007-3.237 11.389-6.333h.69v14.425q-6.557 2.815-13.39 4.715-6.834 1.9-14.358 1.9-19.189 0-29.956-10.555-10.768-10.626-10.768-30.118 0-19.28 10.284-30.61 10.354-11.329 27.196-11.329 15.6 0 24.02 9.289 8.49 9.288 8.49 26.388zm-12.632-10.133q-.069-10.414-5.177-16.114-5.038-5.7-15.392-5.7-10.423 0-16.635 6.263-6.143 6.263-6.972 15.551z" style="line-height:1.25;-inkscape-font-specification:Sans"/>
  </g>
  <g aria-label="initiative" style="line-height:0%;-inkscape-font-specification:Sans" font-weight="400" font-family="OpenSymbol" letter-spacing="0" word-spacing="0" font-size="35.155">
    <path d="M157.192 906.06H142.56v-13.722h14.633zm-.828 91.759h-12.977v-78.601h12.977zM246.648 997.819h-12.976v-44.754q0-5.419-.622-10.133-.62-4.785-2.277-7.46-1.726-2.955-4.97-4.362-3.244-1.478-8.421-1.478-5.315 0-11.113 2.674-5.798 2.674-11.113 6.826v58.687h-12.977v-78.601h12.977v8.726q6.074-5.137 12.562-8.022 6.489-2.885 13.322-2.885 12.494 0 19.05 7.67 6.558 7.67 6.558 22.095zM285.578 906.06h-14.633v-13.722h14.633zm-.828 91.759h-12.977v-78.601h12.977zM350.6 997.115q-3.659.985-8.007 1.618-4.28.634-7.662.634-11.803 0-17.947-6.474-6.143-6.474-6.143-20.759v-41.798h-8.766v-11.118h8.766V896.63h12.977v22.588h26.781v11.118h-26.781v35.817q0 6.192.276 9.71.276 3.449 1.933 6.475 1.518 2.814 4.141 4.151 2.692 1.267 8.145 1.267 3.175 0 6.626-.915 3.452-.985 4.97-1.618h.69zM380.28 906.06h-14.633v-13.722h14.633zm-.828 91.759h-12.977v-78.601h12.977zM465.18 997.819h-12.907v-8.374q-1.726 1.196-4.694 3.377-2.9 2.111-5.66 3.378-3.244 1.619-7.455 2.674-4.21 1.126-9.87 1.126-10.423 0-17.67-7.037-7.248-7.037-7.248-17.944 0-8.936 3.727-14.425 3.797-5.559 10.768-8.725 7.04-3.167 16.911-4.293 9.87-1.126 21.19-1.689v-2.04q0-4.504-1.587-7.46-1.519-2.955-4.418-4.644-2.76-1.618-6.626-2.18-3.865-.564-8.076-.564-5.108 0-11.389 1.407-6.281 1.337-12.976 3.941h-.69v-13.44q3.796-1.056 10.974-2.322 7.179-1.267 14.15-1.267 8.145 0 14.15 1.407 6.074 1.337 10.492 4.645 4.349 3.237 6.626 8.373 2.278 5.137 2.278 12.737zm-12.907-19.352v-21.884q-5.937.352-14.012 1.056-8.007.703-12.7 2.04-5.592 1.619-9.043 5.067-3.451 3.377-3.451 9.359 0 6.755 4.003 10.203 4.003 3.378 12.217 3.378 6.834 0 12.494-2.674 5.66-2.745 10.492-6.545zM530.34 997.115q-3.659.985-8.007 1.618-4.28.634-7.662.634-11.803 0-17.947-6.474-6.143-6.474-6.143-20.759v-41.798h-8.766v-11.118h8.766V896.63h12.977v22.588h26.781v11.118h-26.781v35.817q0 6.192.276 9.71.276 3.449 1.933 6.475 1.518 2.814 4.141 4.151 2.692 1.267 8.145 1.267 3.175 0 6.627-.915 3.45-.985 4.97-1.618h.69zM560.02 906.06h-14.633v-13.722h14.633zm-.828 91.759h-12.977v-78.601h12.977zM651.685 919.218l-31.2 78.6H607.44l-30.992-78.6h14.08l23.883 62.557 23.676-62.557zM733.203 959.89h-56.808q0 7.248 2.14 12.667 2.14 5.348 5.867 8.796 3.59 3.377 8.49 5.066 4.97 1.689 10.906 1.689 7.869 0 15.807-3.167 8.007-3.237 11.389-6.333h.69v14.426q-6.557 2.814-13.39 4.714-6.834 1.9-14.358 1.9-19.189 0-29.956-10.555-10.768-10.626-10.768-30.117 0-19.281 10.284-30.61 10.354-11.33 27.196-11.33 15.6 0 24.02 9.29 8.49 9.288 8.49 26.387zm-12.632-10.132q-.069-10.415-5.177-16.115-5.038-5.7-15.392-5.7-10.423 0-16.635 6.263-6.143 6.263-6.972 15.552z" style="line-height:1.25;-inkscape-font-specification:Sans"/>
  </g>
</svg>
