<svg width="320" height="201" fill="none" xmlns="http://www.w3.org/2000/svg">
  <rect width="320" height="201" rx="5" fill="#F9FAFB"/>
  <rect width="320" height="201" rx="5" fill="#F9FAFB"/>
  <mask id="a" maskUnits="userSpaceOnUse" x="0" y="0" width="320" height="201">
    <rect width="320" height="201" rx="5" fill="#fff"/>
  </mask>
  <g mask="url(#a)">
    <path fill-rule="evenodd" clip-rule="evenodd" d="M106.528 191.803l3.653.654-1.087 2.75-5.174-.329 2.608-3.075z" fill="#fff"/>
    <path d="M67.084 216.732l-.11-.028-.11.022-12.74 2.565-6.568-7.323-.104-.116-.153-.036-10.872-2.577 1.338-7.56.042-.237-.159-.181-6.527-7.413 9.383-8.07.112-.097.042-.142 2.316-7.932 10.068-2.367.113-.026.089-.073 8.453-6.894 11.744 2.825.108.026.108-.023 12.47-2.534 6.391 7.078.104.115.15.036 11.541 2.776-1.232 8.415-.032.219.14.171 6.298 7.655-7.97 6.746-.145.123-.027.188-1.116 7.813-12.004 2.544-.123.026-.096.081-8.612 7.277-12.31-3.072z" fill="#fff" stroke="#D6DBDE"/>
    <path d="M31.358 191.315l-.464 2.168M110.469 192.198l-.579 2.384" stroke="#D6DBDE" stroke-linecap="square"/>
    <path fill-rule="evenodd" clip-rule="evenodd" d="M31.732 191.523l4.123.427-3.23 3.141-1.341-1.51.448-2.058zM106.213 191.204l3.492 2.419-.237 1.012-.797.663-2.907-2.037.449-2.057z" fill="#fff"/>
    <path d="M67.76 214.089l-.109-.026-.108.022-12.47 2.535-6.391-7.078-.104-.115-.15-.036-11.54-2.776 1.231-8.415.034-.233-.158-.174-6.229-6.9 8.238-6.718.15-.123.029-.193 1.247-8.518 12.406-2.522.12-.024.096-.078 8.453-6.895 11.744 2.825.108.026.108-.022 12.47-2.534 6.391 7.078.104.114.15.037 11.541 2.776-1.232 8.414-.034.233.158.175 6.229 6.899-8.238 6.719-.15.123-.029.192-1.247 8.519-12.406 2.521-.12.025-.096.078-8.453 6.894-11.744-2.825z" fill="#fff" stroke="#D6DBDE"/>
    <path d="M94.258 190.672c-.567 4.208-3.717 8.141-8.474 11.071-4.747 2.923-11.03 4.802-17.72 4.926-6.691.124-12.472-1.532-16.415-4.269-3.938-2.732-6.012-6.508-5.448-10.685.568-4.208 3.717-8.142 8.474-11.071 4.747-2.923 11.03-4.803 17.72-4.927 6.692-.123 12.472 1.533 16.415 4.269 3.938 2.732 6.012 6.508 5.448 10.686z" stroke="#D6DBDE"/>
    <path opacity=".8" fill-rule="evenodd" clip-rule="evenodd" d="M65.187 194.505l2.737.85s2.265-3.187 2.679-3.705c.782-.039 1.566-.347 2.008-.845.642-.721.325-1.566-.707-1.886-1.033-.321-2.39.004-3.031.725-.442.496-.43 1.051-.042 1.453-.49.5-3.644 3.408-3.644 3.408zm16.98-5.822c.351.109.708.205 1.07.288l.073.025-3.349 3.764c-3.78 4.25-10.631 6.799-17.305 6.869a.545.545 0 01-.146-.023.388.388 0 01-.12-.06l-.089-.081c-3.598-3.283-3.892-8.019-.142-12.233 2.258-2.504 3.394-3.753 3.406-3.75a12.725 12.725 0 001.026.364c3.043.945 6.567.937 9.8.158.722 1.944 2.595 3.612 5.478 4.583l.113.036c.047.016.094.032.186.06z" fill="#D6DBDE"/>
    <path d="M273.195 141.79l.377-.742-.832.015-8 .15 24.115-12.482 6.029 5.655-24.323 12.589 2.634-5.185z" fill="#fff" stroke="#D6DBDE"/>
    <path d="M301.705 148.628l-.362-.267-.304.333-4.853 5.316-2.273-20.008 11.172-1.189 2.268 19.97-5.648-4.155z" fill="#fff" stroke="#D6DBDE"/>
    <path d="M301.174 137.013l-.11-.028-.11.023-9.505 1.913-4.889-5.45-.104-.117-.153-.036-8.057-1.909.985-5.567.042-.237-.159-.181-4.822-5.477 6.956-5.983.113-.097.041-.142 1.721-5.891 7.496-1.762.112-.027.09-.073 6.305-5.142 8.766 2.109.108.025.108-.022 9.303-1.89 4.755 5.266.104.115.15.036 8.563 2.06-.909 6.212-.032.219.14.171 4.655 5.659-5.896 4.991-.145.122-.027.189-.826 5.785-8.937 1.894-.123.026-.096.081-6.424 5.429-9.189-2.294z" fill="#fff" stroke="#D6DBDE"/>
    <path d="M292.002 137.343l-.567 1.697M287.071 131.837l-.578 1.684M274.294 118.031l-.349 1.63M301.532 135.46l-.449 1.666M310.557 137.446l-.237 1.686M317.047 132.361l-.345 1.699" stroke="#D6DBDE" stroke-linecap="square"/>
    <path fill-rule="evenodd" clip-rule="evenodd" d="M274.575 118.188l3.098.321-2.427 2.36-1.008-1.135.337-1.546z" fill="#fff"/>
    <path d="M301.68 135.027l-.108-.026-.108.022-9.303 1.891-4.755-5.267-.104-.115-.15-.036-8.563-2.06.909-6.212.034-.233-.158-.174-4.593-5.089 6.089-4.967.151-.122.028-.193.925-6.316 9.238-1.877.12-.025.096-.078 6.305-5.142 8.766 2.109.108.025.109-.022 9.302-1.89 4.755 5.266.104.115.151.037 8.563 2.059-.91 6.212-.034.233.158.175 4.594 5.088-6.09 4.967-.151.123-.028.192-.924 6.316-9.238 1.877-.121.025-.096.078-6.305 5.142-8.766-2.108z" fill="#fff" stroke="#D6DBDE"/>
    <path d="M321.443 117.532c-.42 3.111-2.753 6.04-6.31 8.231-3.548 2.184-8.248 3.591-13.255 3.684-5.009.092-9.326-1.148-12.264-3.186-2.931-2.035-4.458-4.831-4.042-7.913.42-3.111 2.754-6.04 6.311-8.231 3.547-2.184 8.248-3.591 13.254-3.684 5.009-.092 9.326 1.148 12.264 3.187 2.932 2.034 4.458 4.83 4.042 7.912z" stroke="#D6DBDE"/>
    <path opacity=".8" fill-rule="evenodd" clip-rule="evenodd" d="M299.718 120.429l2.057.639s1.702-2.395 2.013-2.785c.588-.029 1.177-.261 1.51-.635.482-.542.244-1.176-.532-1.417-.776-.241-1.796.003-2.278.545-.332.373-.323.79-.031 1.092-.369.375-2.739 2.561-2.739 2.561zm12.762-4.375c.263.081.531.153.803.216l.055.018-2.517 2.829c-2.841 3.194-7.99 5.11-13.005 5.163a.436.436 0 01-.11-.017.303.303 0 01-.09-.045l-.067-.061c-2.704-2.468-2.925-6.027-.107-9.194 1.697-1.882 2.551-2.821 2.56-2.818.122.049.247.096.406.153l.163.055c.066.022.133.044.202.065 2.287.711 4.936.704 7.366.119.542 1.461 1.95 2.715 4.116 3.444l.085.028.14.045z" fill="#D6DBDE"/>
    <path d="M20.24 70.222l.378-.742-.832.016-8.986.167 26.676-13.807 6.69 6.275-26.884 13.915 2.959-5.824z" fill="#fff" stroke="#D6DBDE"/>
    <path d="M51.538 77.786l-.362-.266-.303.332-5.398 5.912-2.511-22.108 12.355-1.315 2.507 22.071-6.288-4.626z" fill="#fff" stroke="#D6DBDE"/>
    <path fill-rule="evenodd" clip-rule="evenodd" d="M83.478 44.577l3.013.54-.896 2.267-4.267-.271 2.15-2.536z" fill="#fff"/>
    <path d="M50.972 65.05l-.11-.028-.11.022-10.456 2.105-5.383-6.001-.105-.117-.152-.036-8.885-2.105 1.088-6.154.042-.236-.159-.181-5.323-6.047 7.67-6.597.112-.097.042-.142 1.895-6.492 8.254-1.94.112-.027.09-.072 6.936-5.658 9.642 2.32.108.025.11-.022 10.234-2.08 5.236 5.8.104.114.15.037 9.44 2.27-1.005 6.86-.032.22.14.17 5.139 6.247-6.507 5.507-.145.122-.026.189-.912 6.382-9.84 2.085-.122.026-.096.081-7.068 5.972-10.108-2.523z" fill="#fff" stroke="#D6DBDE"/>
    <path d="M40.92 65.365l-.622 1.862M35.51 59.323l-.634 1.848M21.49 44.175l-.383 1.788M51.378 63.299l-.493 1.827M61.28 65.478l-.26 1.85M68.402 59.898l-.379 1.865M86.728 44.902l-.477 1.967" stroke="#D6DBDE" stroke-linecap="square"/>
    <path fill-rule="evenodd" clip-rule="evenodd" d="M21.798 44.346l3.4.353-2.663 2.59-1.107-1.246.37-1.697zM83.218 44.083l2.88 1.995-.195.834-.657.547-2.397-1.68.37-1.696z" fill="#fff"/>
    <path d="M51.529 62.87l-.108-.026-.11.022-10.234 2.08-5.236-5.8-.104-.114-.15-.036-9.44-2.271 1.005-6.86.034-.233-.158-.174-5.075-5.622 6.722-5.482.15-.123.029-.192 1.02-6.964 10.17-2.067.12-.025.096-.078 6.937-5.658 9.642 2.32.108.026.109-.022 10.234-2.08 5.237 5.8.103.114.15.036 9.44 2.271-1.004 6.86-.034.233.157.174 5.075 5.622-6.722 5.482-.15.123-.028.192-1.02 6.964-10.17 2.067-.12.025-.096.078-6.937 5.658-9.642-2.32z" fill="#fff" stroke="#D6DBDE"/>
    <path d="M73.274 43.633c-.464 3.434-3.037 6.658-6.948 9.066-3.9 2.402-9.066 3.948-14.568 4.05-5.504.102-10.252-1.261-13.485-3.505-3.228-2.24-4.916-5.324-4.456-8.728.463-3.434 3.037-6.659 6.947-9.067 3.9-2.401 9.067-3.947 14.568-4.05 5.505-.101 10.252 1.262 13.486 3.505 3.228 2.24 4.915 5.324 4.456 8.729z" stroke="#D6DBDE"/>
    <path opacity=".8" fill-rule="evenodd" clip-rule="evenodd" d="M49.387 46.805l2.257.701s1.868-2.628 2.209-3.056c.645-.031 1.291-.286 1.656-.696.53-.595.268-1.291-.583-1.555-.852-.265-1.97.003-2.5.598-.364.409-.354.867-.034 1.198-.405.412-3.005 2.81-3.005 2.81zm14.003-4.8c.289.09.583.168.882.237l.06.02-2.762 3.104c-3.118 3.505-8.767 5.607-14.27 5.665a.44.44 0 01-.121-.02.315.315 0 01-.098-.049l-.074-.066c-2.967-2.708-3.21-6.613-.118-10.089 1.863-2.064 2.8-3.095 2.81-3.092a11.17 11.17 0 00.845.3c2.51.78 5.416.773 8.083.13.595 1.603 2.14 2.98 4.517 3.78l.093.03.153.05z" fill="#D6DBDE"/>
    <path d="M233.336 24.672l.377-.742-.832.016-5.303.099 17.113-8.857 4.219 3.957-17.32 8.965 1.746-3.438z" fill="#fff" stroke="#D6DBDE"/>
    <path d="M254.224 29.524l-.362-.266-.303.332-3.366 3.686-1.62-14.263 7.936-.844 1.616 14.225-3.901-2.87z" fill="#fff" stroke="#D6DBDE"/>
    <path fill-rule="evenodd" clip-rule="evenodd" d="M275.493 7.441l2.015.361-.599 1.517-2.855-.181 1.439-1.697z" fill="#fff"/>
    <path d="M253.787 20.976l-.109-.027-.11.022-6.903 1.39-3.538-3.945-.104-.116-.153-.036-5.792-1.373.702-3.962.042-.237-.159-.181-3.451-3.92 5.004-4.304.112-.096.042-.143 1.241-4.25 5.427-1.276.112-.026.09-.073 4.577-3.733 6.371 1.532.107.026.109-.022 6.754-1.373 3.44 3.81.104.115.15.036L274.02.298l-.65 4.44-.032.219.14.17 3.334 4.053-4.228 3.579-.145.123-.027.188-.593 4.155-6.469 1.37-.123.027-.096.08-4.664 3.941-6.68-1.667z" fill="#fff" stroke="#D6DBDE"/>
    <path d="M247.023 21.348l-.208.762M243.403 17.306l-.383 1.028M234.244 7.489l-.142.66M254.019 19.966l-.318.912M260.643 21.424l-.223.972M265.43 17.692l-.185.78M277.335 7.867l-.18.774" stroke="#D6DBDE" stroke-linecap="square"/>
    <path fill-rule="evenodd" clip-rule="evenodd" d="M235.408 6.93l2.097.593-2.153 1.607-.842-.898.157-.76.741-.542zM275.948 6.784l.947 1.023-.217.832-.73.613-.876-1.006.876-1.462z" fill="#fff"/>
    <path d="M254.158 19.518l-.108-.026-.108.022-6.755 1.373-3.439-3.81-.104-.115-.15-.036-6.168-1.484.65-4.439.034-.233-.158-.175-3.278-3.63 4.362-3.558.15-.123.028-.192.666-4.544 6.689-1.36.121-.024.096-.078 4.577-3.733 6.37 1.532.108.026.109-.022 6.754-1.373 3.44 3.81.103.115.151.036 6.168 1.484-.65 4.44-.035.232.158.175 3.279 3.63-4.362 3.558-.151.123-.028.192-.665 4.544-6.69 1.36-.121.024-.095.078-4.577 3.733-6.371-1.532z" fill="#fff" stroke="#D6DBDE"/>
    <path d="M268.502 6.787c-.301 2.23-1.978 4.35-4.57 5.947-2.582 1.59-6.009 2.617-9.662 2.684-3.655.068-6.795-.838-8.924-2.315-2.123-1.473-3.208-3.48-2.911-5.68.301-2.23 1.978-4.35 4.57-5.947 2.582-1.59 6.009-2.617 9.662-2.684 3.656-.068 6.795.838 8.924 2.315 2.123 1.473 3.208 3.48 2.911 5.68z" stroke="#D6DBDE"/>
    <path opacity=".8" fill-rule="evenodd" clip-rule="evenodd" d="M252.687 8.932l1.51.469s1.249-1.758 1.478-2.044c.431-.021.863-.192 1.107-.466.354-.398.18-.864-.39-1.04-.569-.178-1.318.001-1.672.4-.244.273-.237.58-.023.801-.27.276-2.01 1.88-2.01 1.88zm9.367-3.212c.194.06.391.113.59.16l.041.013-1.848 2.076c-2.086 2.345-5.865 3.75-9.546 3.79a.29.29 0 01-.081-.013.213.213 0 01-.066-.033l-.049-.045c-1.985-1.811-2.148-4.423-.079-6.749 1.246-1.38 1.872-2.07 1.879-2.068a7.473 7.473 0 00.566.2c1.679.522 3.623.517 5.407.088.398 1.072 1.431 1.993 3.022 2.528l.062.02c.026.009.052.018.102.033z" fill="#D6DBDE"/>
    <path d="M199.374 85.061l-29.33-10.945 15.621-15.62L210 64.976v9.67l-10.308 10.308" fill="#fff"/>
    <path d="M199.374 85.061l-29.33-10.945 15.621-15.62L210 64.976v9.67l-10.308 10.308" stroke="#0ABE65" stroke-miterlimit="10"/>
    <path d="M113.511 124.38v8.926c0 .637.425 1.275 1.063 1.381l32.411 8.714c.744.213 2.019-.106 2.656-.85l49.626-49.52c.319-.318.425-.637.425-1.062V82.51c0-.319-.212-.531-.637-.744l-32.942-8.82c-.744-.212-2.02.106-2.657.85l-49.52 49.52c-.637.638-.531 1.381.213 1.594l32.942 8.82c.744.212 2.019-.106 2.657-.85l50.051-50.051" fill="#fff"/>
    <path d="M113.511 124.38v8.926c0 .637.425 1.275 1.063 1.381l32.411 8.714c.744.213 2.019-.106 2.656-.85l49.626-49.52c.319-.318.425-.637.425-1.062V82.51c0-.319-.212-.531-.637-.744l-32.942-8.82c-.744-.212-2.02.106-2.657.85l-49.52 49.52c-.637.638-.531 1.381.213 1.594l32.942 8.82c.744.212 2.019-.106 2.657-.85l50.051-50.051" stroke="#0ABE65" stroke-miterlimit="10"/>
    <path d="M155.273 101.958s3.082-2.657 3.613-3.082c-.318-.319-.212-.85.213-1.275.638-.638 1.913-.957 2.763-.744.85.212 1.063.956.425 1.594-.425.425-1.169.744-1.807.85-.425.425-2.762 3.294-2.762 3.294l-2.445-.637zm15.728-5.845h-.213c-2.444-.744-3.932-2.125-4.357-3.72-2.975.745-6.057.957-8.607.213-.106 0-.106 0-.213-.106-.106 0-.106 0-.212-.106-.213-.107-.319-.107-.425-.107l-3.295 3.295c-3.719 3.719-4.038 7.757-1.168 10.414l.106.106h.212c5.845-.319 12.221-2.763 15.94-6.482l3.294-3.294h-.106c-.319-.107-.638-.107-.956-.213z" fill="#1B8AFE"/>
    <path d="M185.028 70.503l-5.739-1.488 3.613-3.719 5.739 1.594-3.613 3.613zM197.142 73.797l-5.738-1.594 3.719-3.613 5.632 1.488-3.613 3.72zM137.441 125.26c1.931-.505 3.255-1.835 2.958-2.971-.297-1.135-2.103-1.647-4.033-1.142-1.931.505-3.255 1.835-2.958 2.97.297 1.136 2.103 1.647 4.033 1.143zM209.788 65.19l-15.409 15.408" stroke="#0ABE65" stroke-miterlimit="10"/>
  </g>
  <rect x=".5" y=".5" width="319" height="200" rx="4.5" stroke="#EAEEF1"/>
</svg>
