<svg width="320" height="201" fill="none" xmlns="http://www.w3.org/2000/svg">
  <rect width="320" height="201" rx="5" fill="#F9FAFB"/>
  <mask id="a" maskUnits="userSpaceOnUse" x="0" y="0" width="320" height="201">
    <rect width="320" height="201" rx="5" fill="#F9FAFB"/>
  </mask>
  <g mask="url(#a)">
    <path d="M63.445 18.776c5.417 2.509 7.464 6.57 6.02 10.432-1.044-1.752-2.85-3.304-5.458-4.539-8.025-3.742-20.384-2.747-27.607 2.23-2.408 1.633-3.933 3.504-4.615 5.375-2.127-3.623-.843-7.923 4.013-11.268 7.263-4.977 19.622-5.972 27.647-2.23zM80.54 11.61l.562 5.892-2.649 2.827c-.642-.318-1.204-.716-1.565-1.154l-.04-.04c-.963-1.115-.963-2.429.04-3.623l.12-.12 3.532-3.782zM89.648 27.456l.562 6.132-6.982 1.473c-1.325.28-2.488.797-3.371 1.434l-1.043-.796c-1.324-.996-1.605-2.39-.843-3.664 0 0 0-.04.04-.04.763-1.274 2.488-2.349 4.735-2.826l6.942-1.474-.04-.239zM83.028 39.242l.521 5.455-.04.12-7.142 4.897-.04-.04-.522-5.813 7.182-4.977.04.358z" fill="#fff"/>
    <path d="M76.326 49.674l.04.08-.04.04-6.3-1.713c-2.006-.557-4.414-.438-6.5.24-.04 0-.04 0-.08.04-2.087.676-3.572 1.83-3.973 3.184l-1.164 3.902-.561-5.892 1.163-3.942c.401-1.314 1.886-2.509 3.973-3.185h.08c2.087-.677 4.494-.797 6.5-.24l6.3 1.713.562 5.773z" fill="#fff"/>
    <path d="M57.788 49.475l.562 5.893-.08.279-10.755.836-.04-.08.08-.04-.521-5.773 10.714-.876.04-.239z" fill="#fff"/>
    <path d="M47.034 50.59l.521 5.773-.08.04-1.926-3.822c-.602-1.235-2.327-2.15-4.494-2.469h-.08c-2.167-.319-4.575-.04-6.42.836l-5.9 2.708-.561-5.893 5.898-2.708c1.886-.876 4.294-1.154 6.42-.796h.08c2.168.319 3.853 1.234 4.495 2.469l1.966 3.902.08-.04z" fill="#fff"/>
    <path d="M28.134 47.723l.561 5.893-7.985-3.743-.562-5.893 4.214 1.951 3.772 1.792zM23.88 36.415c1.004 1.155.963 2.548-.16 3.743l-.883.956c-.963-.478-2.207-.797-3.571-.837l-7.143-.358-.561-5.893 7.102.319c2.287.12 4.213.916 5.216 2.07zM22.035 20.01c1.204.996 1.445 2.31.682 3.544 0 0 0 .04-.04.04a4.84 4.84 0 01-1.324 1.394l-3.13-2.39-.482-5.215-.08-.677 4.173 3.185.201.12z" fill="#fff"/>
    <path d="M75.805 43.86l-6.3-1.711c-2.006-.558-4.414-.438-6.5.239h-.08c-2.087.677-3.572 1.831-3.973 3.185l-1.164 3.942-.08.239-10.674.836h-.04l-1.966-3.902c-.602-1.235-2.328-2.15-4.495-2.469h-.08c-2.167-.318-4.574-.04-6.42.797l-5.899 2.707-3.772-1.752-4.213-1.95 2.648-2.828.883-.955c1.124-1.195 1.164-2.588.16-3.743 0 0 0-.04-.04-.04-1.003-1.155-2.889-1.911-5.136-2.03l-7.102-.399L11 27.894l6.942-1.473c1.324-.278 2.488-.796 3.37-1.433.562-.398 1.044-.876 1.325-1.394 0 0 0-.04.04-.04.722-1.234.481-2.548-.682-3.543l-.16-.12-4.174-3.185 7.223-4.977 6.3 1.712c2.006.557 4.414.438 6.5-.239 0 0 .04 0 .08-.04 2.087-.677 3.572-1.831 3.973-3.145l1.244-4.141L53.735 5l1.966 3.902c.602 1.234 2.328 2.15 4.495 2.469h.08c2.167.318 4.574.04 6.46-.797l5.899-2.707 7.985 3.743-3.531 3.822-.12.12c-1.004 1.194-1.004 2.508-.04 3.623 0 0 0 .04.04.04.4.438.922.836 1.565 1.154.962.478 2.206.797 3.57.876l7.143.319.522 5.892.04.24-6.942 1.473c-2.207.477-3.972 1.552-4.735 2.827 0 0 0 .04-.04.04-.762 1.273-.481 2.667.843 3.663l1.043.796 3.13 2.389-7.303 4.977zm-6.38-14.652c1.444-3.902-.602-7.923-6.02-10.431-8.025-3.743-20.384-2.748-27.607 2.23-4.855 3.384-6.139 7.684-4.012 11.267 1.043 1.752 2.849 3.305 5.457 4.54 8.025 3.742 20.384 2.747 27.607-2.23 2.368-1.633 3.893-3.464 4.575-5.376z" fill="#fff"/>
    <path d="M22.797 41.114l.883-.956c1.123-1.194 1.163-2.588.16-3.743 0 0 0-.04-.04-.04-1.003-1.154-2.889-1.91-5.136-2.03l-7.103-.319.522 5.893 7.143.358c1.364.08 2.608.359 3.571.837zM82.988 38.884l-7.183 4.977-6.3-1.712c-2.006-.558-4.414-.438-6.5.239h-.08c-2.087.677-3.572 1.831-3.973 3.185l-1.164 3.942-.08.239-10.674.836h-.04l-1.966-3.902c-.602-1.235-2.328-2.15-4.495-2.469h-.08c-2.167-.318-4.574-.04-6.42.797l-5.899 2.707-3.772-1.752M31.786 32.274c.682-1.871 2.207-3.742 4.574-5.375 7.223-4.977 19.582-5.972 27.607-2.23 2.609 1.235 4.454 2.787 5.458 4.54M20.149 43.98l4.213 1.951M89.649 27.456l-.522-5.892-7.143-.319c-1.364-.08-2.608-.358-3.57-.876M21.353 24.988c-.883.637-2.047 1.155-3.37 1.433L11 27.895l.562 6.131v-.239" stroke="#D6DBDE" stroke-miterlimit="10"/>
    <path d="M69.425 29.209c1.444-3.902-.602-7.924-6.02-10.432-8.025-3.743-20.384-2.748-27.607 2.23-4.855 3.384-6.14 7.684-4.012 11.267 1.043 1.752 2.849 3.305 5.457 4.54 8.025 3.742 20.384 2.747 27.607-2.23 2.368-1.633 3.893-3.464 4.575-5.376zM28.134 47.723l.562 5.893M57.788 49.475l.562 5.893v.04M75.765 43.742l.04.119.521 5.813" stroke="#D6DBDE" stroke-miterlimit="10"/>
    <path d="M22.797 41.114L20.15 43.94l.562 5.892 7.985 3.743 5.899-2.708c1.886-.875 4.253-1.154 6.42-.836h.08c2.167.319 3.852 1.235 4.494 2.469l1.926 3.822.04.08 10.755-.876.08-.239 1.163-3.902c.402-1.314 1.886-2.508 3.973-3.185.04 0 .04 0 .08-.04 2.087-.677 4.494-.796 6.5-.239l6.3 1.712.04-.04 7.144-4.937v-.08l-.562-5.335-.04-.318-3.13-2.39-1.044-.796c-1.324-.995-1.605-2.389-.842-3.663 0 0 0-.04.04-.04.762-1.274 2.488-2.349 4.735-2.827l6.942-1.473-.04-.239.561 6.132-6.982 1.473c-1.324.279-2.487.797-3.37 1.434" stroke="#D6DBDE" stroke-miterlimit="10"/>
    <path d="M47.034 50.47v.12l.522 5.773M17.701 16.706l4.173 3.185.16.12c1.205.995 1.445 2.31.683 3.544 0 0 0 .04-.04.04a4.84 4.84 0 01-1.324 1.393l-3.13-2.39-.482-5.215-.04-.677zm0 0l7.223-4.977 6.3 1.712c2.006.557 4.414.438 6.5-.239 0 0 .04 0 .08-.04 2.087-.677 3.572-1.831 3.973-3.145l1.244-4.141L53.775 5l1.966 3.902c.602 1.234 2.328 2.15 4.495 2.469h.08c2.167.318 4.574.04 6.46-.797l5.899-2.707 7.985 3.743.562 5.892-2.648 2.827c-.642-.318-1.204-.716-1.565-1.154l-.04-.04c-.963-1.115-.963-2.429.04-3.623l.12-.12 3.531-3.822" stroke="#D6DBDE" stroke-miterlimit="10"/>
    <path d="M301.135 162.152c9.104 4.215 12.543 11.04 10.115 17.531-1.753-2.945-4.787-5.554-9.171-7.628-13.486-6.29-34.256-4.617-46.394 3.747-4.046 2.743-6.608 5.888-7.755 9.033-3.574-6.089-1.416-13.316 6.744-18.936 12.205-8.364 32.975-10.037 46.461-3.747zM322.782 214.075l.067.134-.067.067-10.587-2.877c-3.372-.937-7.418-.736-10.924.401-.068 0-.068 0-.135.067-3.507 1.138-6.002 3.078-6.676 5.353l-1.956 6.558-.944-9.903 1.956-6.625c.674-2.208 3.169-4.215 6.676-5.353h.134c3.507-1.137 7.553-1.338 10.925-.401l10.587 2.877.944 9.702zM234.646 191.794c1.686 1.94 1.618 4.282-.27 6.289l-1.484 1.606c-1.618-.803-3.708-1.338-6.001-1.405l-12.003-.602-.944-9.903 11.935.535c3.844.201 7.081 1.539 8.767 3.48zM231.545 164.226c2.023 1.673 2.427 3.881 1.146 5.955 0 0 0 .067-.067.067a8.128 8.128 0 01-2.226 2.342l-5.259-4.015-.81-8.765-.134-1.138 7.013 5.353.337.201z" fill="#fff"/>
    <path d="M321.906 204.306l-10.588-2.877c-3.371-.937-7.417-.736-10.924.402h-.135c-3.506 1.137-6.001 3.077-6.676 5.352l-1.955 6.625-.135.401-17.937 1.405h-.068l-3.304-6.557c-1.012-2.074-3.911-3.613-7.553-4.149h-.135c-3.641-.535-7.687-.066-10.789 1.339l-9.913 4.55-6.339-2.944-7.08-3.279 4.451-4.751 1.483-1.606c1.888-2.007 1.956-4.349.27-6.289 0 0 0-.067-.068-.067-1.685-1.941-4.855-3.212-8.631-3.413l-11.936-.669-.944-10.305 11.666-2.475c2.225-.469 4.181-1.339 5.664-2.409.945-.669 1.754-1.472 2.226-2.342 0 0 0-.067.067-.067 1.214-2.074.809-4.282-1.146-5.955l-.27-.201-7.013-5.353 12.138-8.364 10.587 2.877c3.372.937 7.418.736 10.924-.401 0 0 .068 0 .135-.067 3.507-1.138 6.002-3.078 6.676-5.286l2.091-6.959L284.817 139l3.304 6.557c1.012 2.075 3.911 3.614 7.553 4.149h.135c3.641.535 7.687.067 10.857-1.338l9.912-4.55 13.42 6.289-5.935 6.424-.202.201c-1.686 2.007-1.686 4.215-.067 6.089 0 0 0 .067.067.067.674.736 1.551 1.405 2.63 1.94 1.618.803 3.709 1.338 6.002 1.472l12.003.535.877 9.903.067.402-11.666 2.476c-3.709.803-6.676 2.609-7.957 4.75 0 0 0 .067-.068.067-1.281 2.142-.809 4.483 1.416 6.156l1.754 1.339 5.26 4.014-12.273 8.364zm-10.722-24.623c2.427-6.558-1.012-13.316-10.115-17.531-13.487-6.29-34.257-4.617-46.395 3.747-8.159 5.687-10.317 12.914-6.743 18.936 1.753 2.944 4.787 5.554 9.171 7.628 13.486 6.29 34.256 4.617 46.394-3.747 3.979-2.744 6.541-5.822 7.688-9.033z" fill="#fff"/>
    <path d="M232.825 199.689l1.484-1.606c1.888-2.007 1.955-4.349.269-6.289 0 0 0-.067-.067-.067-1.686-1.941-4.855-3.212-8.632-3.413l-11.935-.535.876 9.903 12.003.602c2.293.134 4.384.602 6.002 1.405zM333.976 195.942l-12.071 8.364-10.587-2.877c-3.371-.937-7.417-.736-10.924.401h-.135c-3.506 1.138-6.001 3.078-6.676 5.353l-1.955 6.625-.135.401-17.938 1.405h-.067l-3.304-6.557c-1.012-2.074-3.911-3.613-7.553-4.149h-.135c-3.641-.535-7.687-.066-10.789 1.339l-9.913 4.55-6.339-2.944M247.931 184.835c1.146-3.145 3.709-6.29 7.687-9.033 12.138-8.364 32.908-10.037 46.395-3.747 4.383 2.074 7.485 4.684 9.171 7.628M230.398 172.59c-1.484 1.071-3.439 1.94-5.665 2.409L213 177.475l.944 10.304v-.401" stroke="#D6DBDE" stroke-miterlimit="10"/>
    <path d="M311.183 179.683c2.428-6.558-1.011-13.316-10.115-17.531-13.487-6.29-34.256-4.617-46.394 3.747-8.16 5.687-10.318 12.914-6.744 18.936 1.753 2.944 4.788 5.554 9.171 7.628 13.487 6.29 34.256 4.617 46.395-3.747 3.978-2.744 6.541-5.821 7.687-9.033z" stroke="#D6DBDE" stroke-miterlimit="10"/>
    <path d="M232.825 199.689l-4.45 4.751.944 9.903 13.419 6.29 9.913-4.55c3.169-1.472 7.148-1.941 10.789-1.405h.135c3.641.535 6.474 2.074 7.553 4.148l3.236 6.424.068.134 18.072-1.473.135-.401 1.955-6.557c.675-2.209 3.17-4.216 6.676-5.353.068 0 .068 0 .135-.067 3.507-1.138 7.553-1.339 10.925-.402l10.587 2.877.067-.066 12.003-8.298v-.133l-.944-8.967-.067-.535-5.26-4.015-1.753-1.338c-2.226-1.673-2.698-4.015-1.416-6.156 0 0 0-.067.067-.067 1.281-2.141 4.181-3.948 7.957-4.75l11.666-2.476-.067-.402.944 10.305-11.734 2.476c-2.225.468-4.18 1.338-5.664 2.408M224.262 158.672l7.013 5.353.27.201c2.023 1.673 2.427 3.881 1.146 5.955 0 0 0 .067-.067.067a8.142 8.142 0 01-2.226 2.342l-5.26-4.015-.809-8.765-.067-1.138zm0 0l12.138-8.364 10.587 2.877c3.372.937 7.418.736 10.924-.401 0 0 .068 0 .135-.067 3.507-1.137 6.002-3.078 6.676-5.286l2.09-6.959L284.885 139l3.304 6.557c1.011 2.075 3.911 3.614 7.553 4.149h.134c3.642.535 7.688.067 10.857-1.338l9.913-4.55 13.419 6.289.944 9.903-4.45 4.751c-1.079-.535-2.023-1.204-2.63-1.94l-.068-.067c-1.618-1.874-1.618-4.082.068-6.089l.202-.201 5.934-6.423" stroke="#D6DBDE" stroke-miterlimit="10"/>
    <path d="M311.555 2.402c3.775 1.748 5.202 4.579 4.195 7.27-.727-1.22-1.986-2.303-3.804-3.163-5.594-2.609-14.208-1.915-19.242 1.554-1.678 1.138-2.741 2.442-3.217 3.747-1.482-2.526-.587-5.523 2.797-7.854 5.062-3.47 13.677-4.163 19.271-1.554zM320.533 23.938l.028.055-.028.028-4.392-1.194c-1.398-.388-3.076-.305-4.53.167-.028 0-.028 0-.056.028-1.455.472-2.49 1.276-2.769 2.22l-.811 2.72-.392-4.108.811-2.747c.28-.916 1.315-1.748 2.769-2.22h.056c1.454-.472 3.132-.555 4.531-.167l4.391 1.194.392 4.024z" fill="#fff"/>
    <path d="M307.611 23.799l.392 4.107-.056.195-7.496.582-.028-.055.056-.028-.364-4.024 7.468-.61.028-.167z" fill="#fff"/>
    <path d="M300.115 24.576l.364 4.024-.056.028-1.343-2.665c-.419-.86-1.622-1.498-3.132-1.72h-.056c-1.51-.222-3.188-.028-4.475.583l-4.111 1.887-.392-4.108 4.111-1.887c1.315-.61 2.993-.805 4.475-.555h.056c1.511.222 2.685.86 3.133 1.72l1.37 2.72.056-.027z" fill="#fff"/>
    <path d="M286.942 22.578l.392 4.107-5.566-2.609-.392-4.107 2.937 1.36 2.629 1.249zM283.978 14.696c.699.805.671 1.776-.112 2.609l-.616.666c-.671-.333-1.538-.555-2.489-.583l-4.978-.25-.392-4.107 4.951.222c1.594.083 2.936.638 3.636 1.443zM282.691 3.262c.839.694 1.007 1.61.476 2.47 0 0 0 .028-.028.028-.224.36-.532.694-.923.971l-2.182-1.665-.335-3.636-.056-.471 2.908 2.22.14.083z" fill="#fff"/>
    <path d="M320.169 19.886l-4.391-1.194c-1.398-.388-3.076-.305-4.531.167h-.056c-1.454.472-2.489 1.276-2.769 2.22l-.811 2.748-.056.166-7.439.583h-.028l-1.371-2.72c-.419-.86-1.622-1.498-3.132-1.72h-.056c-1.51-.223-3.189-.028-4.475.555l-4.112 1.887-2.629-1.221-2.936-1.36 1.846-1.97.615-.667c.783-.832.811-1.804.112-2.608 0 0 0-.028-.028-.028-.699-.805-2.014-1.332-3.58-1.415l-4.951-.278L275 8.757l4.838-1.027c.923-.194 1.734-.555 2.35-.999.391-.277.727-.61.923-.971 0 0 0-.028.028-.028.503-.86.335-1.776-.476-2.47l-.112-.083-2.908-2.22 5.034-3.47 4.391 1.194c1.398.388 3.077.305 4.531-.167 0 0 .028 0 .056-.027 1.454-.472 2.489-1.277 2.769-2.193l.867-2.886 7.495-.61 1.371 2.72c.419.86 1.622 1.498 3.132 1.72h.056c1.511.222 3.189.028 4.503-.555l4.112-1.887 5.566 2.608-2.462 2.665-.084.083c-.699.832-.699 1.748-.028 2.525 0 0 0 .028.028.028.28.305.644.583 1.091.805.671.333 1.538.555 2.489.61l4.979.222.363 4.108.028.166-4.838 1.027c-1.538.333-2.769 1.082-3.301 1.97 0 0 0 .028-.027.028-.532.888-.336 1.86.587 2.553l.727.556 2.182 1.665-5.091 3.469zm-4.447-10.213c1.007-2.72-.419-5.523-4.195-7.271-5.594-2.609-14.208-1.915-19.243 1.554-3.384 2.359-4.279 5.356-2.796 7.854.727 1.22 1.985 2.303 3.803 3.164 5.594 2.608 14.208 1.915 19.243-1.555 1.65-1.137 2.713-2.414 3.188-3.746z" fill="#fff"/>
    <path d="M283.222 17.97l.616-.665c.783-.833.811-1.804.112-2.609 0 0 0-.028-.028-.028-.7-.804-2.014-1.332-3.58-1.415l-4.951-.222.364 4.107 4.978.25c.951.055 1.818.25 2.489.583zM325.176 16.417l-5.007 3.469-4.391-1.194c-1.398-.388-3.076-.305-4.531.167h-.056c-1.454.472-2.489 1.276-2.769 2.22l-.811 2.748-.056.166-7.439.583h-.028l-1.371-2.72c-.419-.86-1.622-1.498-3.132-1.72h-.056c-1.511-.223-3.189-.028-4.475.555l-4.112 1.887-2.629-1.221M289.488 11.81c.475-1.305 1.538-2.609 3.188-3.747 5.034-3.469 13.649-4.163 19.242-1.554 1.818.86 3.105 1.943 3.804 3.164M281.376 19.969l2.937 1.36M282.215 6.731c-.615.444-1.426.805-2.349 1L275 8.756l.391 4.274v-.167" stroke="#D6DBDE" stroke-miterlimit="10"/>
    <path d="M315.722 9.673c1.007-2.72-.42-5.523-4.195-7.271-5.594-2.609-14.209-1.915-19.243 1.554-3.384 2.359-4.279 5.356-2.797 7.854.727 1.221 1.986 2.303 3.804 3.164 5.594 2.608 14.208 1.915 19.242-1.555 1.651-1.137 2.713-2.414 3.189-3.746zM286.942 22.578l.392 4.107M307.611 23.799l.392 4.107v.028M320.141 19.803l.028.083.364 4.052" stroke="#D6DBDE" stroke-miterlimit="10"/>
    <path d="M283.222 17.97l-1.846 1.971.392 4.108 5.566 2.608 4.111-1.887c1.315-.61 2.965-.805 4.475-.583h.056c1.51.222 2.685.86 3.132 1.721l1.343 2.664.028.056 7.496-.61.055-.167.812-2.72c.279-.916 1.314-1.748 2.768-2.22.028 0 .028 0 .056-.028 1.455-.472 3.133-.555 4.531-.166l4.391 1.193.028-.028 4.979-3.441v-.056l-.392-3.719-.028-.222-2.181-1.665-.727-.555c-.923-.694-1.119-1.665-.588-2.553 0 0 0-.028.028-.028.532-.888 1.734-1.637 3.3-1.97l4.839-1.027-.028-.167.392 4.274-4.867 1.027c-.923.195-1.734.555-2.349 1" stroke="#D6DBDE" stroke-miterlimit="10"/>
    <path d="M300.115 24.493v.083l.364 4.024M279.67.959l2.909 2.22.112.083c.839.694 1.007 1.61.475 2.47 0 0 0 .028-.028.028-.223.36-.531.694-.923.971l-2.181-1.665-.336-3.636-.028-.471zm0 0l5.035-3.47 4.391 1.194c1.398.388 3.076.305 4.531-.167 0 0 .028 0 .056-.027 1.454-.472 2.489-1.277 2.768-2.193l.867-2.886 7.496-.61 1.371 2.72c.419.86 1.622 1.498 3.132 1.72h.056c1.51.222 3.188.028 4.503-.555l4.111-1.887 5.566 2.608.392 4.108-1.846 1.97c-.448-.222-.839-.5-1.091-.805l-.028-.027c-.671-.778-.671-1.693.028-2.526l.084-.083 2.461-2.664" stroke="#D6DBDE" stroke-miterlimit="10"/>
    <path d="M173.696 85.166c6.889 3.184 9.491 8.337 7.654 13.239-1.327-2.224-3.623-4.194-6.94-5.76-10.206-4.75-25.923-3.487-35.109 2.829-3.061 2.072-5 4.447-5.868 6.821-2.705-4.598-1.072-10.055 5.103-14.3 9.236-6.315 24.954-7.578 35.16-2.829zM195.435 76.071l.714 7.478-3.368 3.588c-.816-.404-1.531-.91-1.99-1.465l-.051-.05c-1.225-1.416-1.225-3.083.051-4.599l.153-.152 4.491-4.8zM207.018 96.181l.715 7.782-8.879 1.869c-1.684.354-3.164 1.011-4.287 1.819l-1.327-1.01c-1.684-1.264-2.041-3.032-1.071-4.649 0 0 0-.05.051-.05.969-1.617 3.164-2.982 6.021-3.588l8.828-1.87-.051-.303zM198.599 111.138l.663 6.922-.051.152-9.083 6.215-.052-.051-.663-7.377 9.134-6.316.052.455z" fill="#fff"/>
    <path d="M190.076 124.376l.051.101-.051.051-8.012-2.173c-2.551-.707-5.613-.556-8.266.303-.051 0-.051 0-.103.051-2.653.859-4.541 2.324-5.051 4.042l-1.48 4.952-.715-7.478 1.48-5.003c.51-1.667 2.399-3.183 5.052-4.042h.102c2.654-.859 5.716-1.011 8.267-.303l8.012 2.173.714 7.326z" fill="#fff"/>
    <path d="M166.501 124.124l.714 7.478-.102.353-13.676 1.061-.051-.101.102-.05-.663-7.327 13.625-1.111.051-.303z" fill="#fff"/>
    <path d="M152.824 125.538l.664 7.327-.102.05-2.45-4.85c-.765-1.567-2.959-2.729-5.715-3.133h-.102c-2.756-.404-5.817-.051-8.165 1.061l-7.501 3.436-.715-7.478 7.502-3.436c2.398-1.112 5.46-1.465 8.165-1.011h.102c2.755.404 4.898 1.567 5.715 3.133l2.5 4.952.102-.051z" fill="#fff"/>
    <path d="M128.789 121.9l.715 7.478-10.155-4.749-.715-7.478 5.358 2.475 4.797 2.274zM123.38 107.55c1.276 1.466 1.225 3.234-.204 4.75l-1.123 1.213c-1.224-.607-2.806-1.011-4.541-1.061l-9.084-.455-.714-7.478 9.032.404c2.909.151 5.358 1.162 6.634 2.627zM121.032 86.733c1.531 1.263 1.838 2.93.868 4.497 0 0 0 .05-.051.05a6.15 6.15 0 01-1.684 1.769l-3.98-3.032-.613-6.62-.102-.858 5.307 4.042.255.152z" fill="#fff"/>
    <path d="M189.413 116.999l-8.012-2.173c-2.551-.707-5.613-.556-8.266.303h-.103c-2.653.859-4.541 2.325-5.052 4.043l-1.479 5.002-.102.303-13.574 1.061h-.052l-2.5-4.951c-.765-1.567-2.96-2.729-5.715-3.133h-.102c-2.756-.404-5.818-.051-8.165 1.01l-7.502 3.436-4.796-2.223-5.359-2.476 3.368-3.587 1.123-1.213c1.429-1.516 1.48-3.284.204-4.75 0 0 0-.05-.051-.05-1.276-1.466-3.674-2.426-6.532-2.577l-9.032-.505-.714-7.782 8.828-1.87c1.684-.353 3.164-1.01 4.286-1.818.715-.506 1.327-1.112 1.684-1.769 0 0 0-.05.051-.05.919-1.567.613-3.234-.867-4.497l-.204-.152-5.307-4.042 9.185-6.316 8.012 2.172c2.551.708 5.613.556 8.267-.303 0 0 .051 0 .102-.05 2.653-.86 4.541-2.325 5.052-3.992l1.581-5.255 13.677-1.112 2.5 4.952c.765 1.567 2.96 2.729 5.715 3.133h.102c2.756.404 5.818.05 8.216-1.01l7.502-3.436 10.155 4.75-4.491 4.85-.153.151c-1.276 1.516-1.276 3.184-.051 4.599 0 0 0 .05.051.05a6.751 6.751 0 001.99 1.465c1.225.607 2.807 1.01 4.542 1.112l9.083.404.664 7.478.051.304-8.829 1.87c-2.806.605-5.052 1.97-6.021 3.587 0 0 0 .05-.051.05-.97 1.617-.613 3.386 1.071 4.649l1.327 1.01 3.981 3.032-9.288 6.316zm-8.114-18.594c1.837-4.952-.765-10.055-7.654-13.239-10.206-4.75-25.923-3.486-35.109 2.83-6.175 4.295-7.807 9.752-5.103 14.299 1.327 2.224 3.623 4.194 6.94 5.761 10.206 4.749 25.923 3.486 35.109-2.83 3.011-2.072 4.95-4.396 5.817-6.821z" fill="#fff"/>
    <path d="M122.002 113.513l1.123-1.213c1.429-1.516 1.48-3.284.204-4.75 0 0 0-.05-.051-.05-1.276-1.466-3.674-2.426-6.532-2.577l-9.032-.404.663 7.478 9.084.455c1.735.101 3.317.454 4.541 1.061zM198.548 110.683l-9.135 6.316-8.011-2.173c-2.552-.707-5.614-.555-8.267.303h-.102c-2.654.859-4.542 2.325-5.052 4.043l-1.48 5.002-.102.303-13.574 1.061h-.051l-2.501-4.951c-.765-1.567-2.96-2.729-5.715-3.133h-.102c-2.756-.404-5.818-.051-8.165 1.01l-7.501 3.436-4.797-2.223M118.634 117.151l5.358 2.475M207.018 96.181l-.663-7.478-9.083-.404c-1.735-.101-3.317-.455-4.542-1.112M120.165 93.049c-1.122.808-2.602 1.465-4.286 1.819L107 96.738l.714 7.781v-.304M128.79 121.9l.714 7.478" stroke="#0ABE65" stroke-miterlimit="10"/>
    <path d="M166.5 124.124l.715 7.478v.05M189.362 116.847l.051.152.663 7.377" stroke="#0ABE65" stroke-miterlimit="10"/>
    <path d="M122.002 113.513l-3.368 3.587.715 7.478 10.155 4.75 7.501-3.436c2.399-1.112 5.409-1.465 8.165-1.061h.102c2.756.404 4.899 1.566 5.715 3.133l2.45 4.85.051.101 13.676-1.111.102-.303 1.48-4.952c.51-1.668 2.398-3.183 5.052-4.042.051 0 .051 0 .102-.051 2.653-.859 5.715-1.011 8.267-.303l8.011 2.173.052-.051 9.083-6.265v-.102l-.715-6.77-.051-.405-3.98-3.031-1.327-1.011c-1.684-1.263-2.041-3.031-1.071-4.648 0 0 0-.051.051-.051.969-1.617 3.164-2.981 6.021-3.587l8.828-1.87-.051-.303.715 7.781-8.879 1.87c-1.684.353-3.164 1.01-4.287 1.819" stroke="#0ABE65" stroke-miterlimit="10"/>
    <path d="M152.825 125.387v.151l.663 7.327M115.521 82.539l5.308 4.042.204.152c1.531 1.263 1.837 2.93.867 4.497 0 0 0 .05-.051.05a6.137 6.137 0 01-1.684 1.769l-3.98-3.032-.612-6.62-.052-.858zm0 0l9.186-6.316 8.012 2.172c2.551.708 5.613.556 8.266-.303 0 0 .052 0 .103-.05 2.653-.86 4.541-2.325 5.052-3.992l1.581-5.255 13.677-1.112 2.5 4.952c.765 1.567 2.96 2.729 5.715 3.133h.102c2.756.404 5.818.05 8.216-1.01l7.502-3.436 10.155 4.75.714 7.477-3.368 3.588c-.816-.404-1.531-.91-1.99-1.465l-.051-.051c-1.225-1.415-1.225-3.082.051-4.598l.153-.152 4.491-4.85" stroke="#0ABE65" stroke-miterlimit="10"/>
    <path d="M150.098 100.882s4.525-3.75 5.268-4.408c-.473-.46-.405-1.184.27-1.777.946-.92 2.769-1.381 4.053-1.052 1.283.329 1.553 1.381.608 2.302-.676.658-1.756 1.053-2.77 1.119-.607.658-4.052 4.737-4.052 4.737l-3.377-.921zm23.234-8.422c-.135 0-.202-.065-.202-.065l-.135-.066c-3.58-1.053-5.809-2.96-6.417-5.329-4.323 1.118-8.915 1.316-12.765.329-.135 0-.203-.066-.338-.066-.068 0-.203-.066-.27-.066-.27-.065-.473-.131-.676-.197h-.067l-4.931 4.803c-5.538 5.394-5.876 11.184-1.688 15.065l.135.066c.067 0 .067.066.135.066h.202c8.713-.461 18.034-3.947 23.573-9.408l4.93-4.802h-.067c-.541-.132-1.013-.264-1.419-.33z" fill="#1B8AFE"/>
    <path d="M36.51 179.844c5.838 2.703 8.043 7.079 6.486 11.241-1.124-1.888-3.07-3.561-5.88-4.891-8.647-4.033-21.964-2.961-29.747 2.402-2.594 1.759-4.237 3.776-4.972 5.792-2.292-3.904-.908-8.538 4.324-12.141 7.825-5.363 21.142-6.436 29.79-2.403zM54.93 172.122l.605 6.349-2.854 3.046c-.692-.343-1.297-.772-1.686-1.244l-.043-.043c-1.038-1.201-1.038-2.617.043-3.904l.13-.128 3.804-4.076zM64.745 189.197l.605 6.607-7.523 1.587c-1.427.3-2.681.858-3.632 1.545l-1.124-.858c-1.427-1.073-1.73-2.575-.908-3.947 0 0 0-.043.043-.043.821-1.373 2.68-2.532 5.102-3.046l7.48-1.588-.043-.257z" fill="#fff"/>
    <path d="M49.828 206.873l-6.788-1.845c-2.162-.601-4.757-.472-7.005.257h-.086c-2.249.73-3.848 1.974-4.28 3.432l-1.255 4.248-.086.257-11.501.901h-.043l-2.119-4.204c-.648-1.33-2.507-2.317-4.842-2.66h-.087c-2.335-.344-4.929-.043-6.918.858l-6.355 2.917-4.065-1.888-4.54-2.102 2.854-3.046.951-1.03c1.21-1.287 1.254-2.788.173-4.032 0 0 0-.043-.043-.043-1.08-1.244-3.113-2.06-5.534-2.188l-7.653-.429-.606-6.607 7.48-1.588c1.427-.3 2.681-.858 3.632-1.544.606-.429 1.124-.944 1.427-1.502 0 0 0-.043.043-.043.779-1.33.52-2.745-.735-3.818l-.173-.129-4.496-3.432 7.782-5.363 6.789 1.845c2.161.601 4.756.472 7.004-.257 0 0 .043 0 .086-.043 2.249-.729 3.848-1.974 4.28-3.389l1.341-4.462L26.048 165l2.118 4.204c.649 1.33 2.508 2.317 4.843 2.66h.086c2.335.344 4.93.043 6.961-.858l6.356-2.917 8.604 4.033-3.805 4.118-.13.129c-1.08 1.287-1.08 2.703-.043 3.904 0 0 0 .043.044.043.432.472.994.901 1.686 1.244 1.038.515 2.378.858 3.848.944l7.696.343.562 6.35.043.257-7.48 1.588c-2.378.514-4.28 1.673-5.101 3.046 0 0 0 .043-.044.043-.821 1.372-.519 2.874.908 3.947l1.124.858 3.373 2.574-7.87 5.363zm-6.875-15.788c1.557-4.205-.649-8.538-6.485-11.241-8.648-4.033-21.965-2.96-29.747 2.403-5.232 3.646-6.615 8.28-4.324 12.141 1.124 1.888 3.07 3.561 5.88 4.891 8.648 4.033 21.964 2.96 29.747-2.403 2.551-1.759 4.194-3.732 4.93-5.791z" fill="#fff"/>
    <path d="M2.396 194.388c.736-2.016 2.378-4.033 4.93-5.792 7.782-5.363 21.099-6.435 29.746-2.402 2.81 1.33 4.8 3.003 5.88 4.891M64.743 189.197l-.562-6.35-7.696-.343c-1.47-.086-2.81-.386-3.848-.944" stroke="#D6DBDE" stroke-miterlimit="10"/>
    <path d="M42.953 191.085c1.556-4.205-.649-8.538-6.486-11.241-8.647-4.033-21.964-2.96-29.747 2.403-5.231 3.646-6.615 8.28-4.323 12.141 1.124 1.888 3.07 3.561 5.88 4.891 8.647 4.033 21.964 2.96 29.747-2.403 2.55-1.759 4.194-3.732 4.928-5.791z" stroke="#D6DBDE" stroke-miterlimit="10"/>
    <path d="M-7.288 203.912l-2.854 3.046.606 6.35 8.604 4.033 6.356-2.918c2.032-.943 4.583-1.244 6.917-.901h.087c2.335.344 4.15 1.33 4.842 2.66l2.076 4.119.043.086 11.588-.944.086-.257 1.254-4.205c.432-1.416 2.032-2.703 4.28-3.432.044 0 .044 0 .087-.043 2.248-.729 4.842-.858 7.004-.257l6.788 1.844.044-.042 7.696-5.32v-.086l-.606-5.749-.043-.343-3.372-2.574-1.125-.858c-1.426-1.073-1.729-2.575-.907-3.947 0 0 0-.043.043-.043.821-1.373 2.68-2.532 5.102-3.046l7.48-1.588-.044-.257.606 6.607-7.523 1.587c-1.427.3-2.681.858-3.632 1.545M-12.78 177.613l4.497 3.432.173.129c1.297 1.073 1.557 2.488.735 3.818 0 0 0 .043-.043.043a5.213 5.213 0 01-1.427 1.502l-3.372-2.574-.52-5.62-.042-.73zm0 0l7.783-5.363 6.788 1.845c2.162.601 4.757.472 7.005-.257 0 0 .043 0 .086-.043 2.249-.729 3.848-1.974 4.28-3.389l1.341-4.462L26.09 165l2.12 4.204c.648 1.33 2.507 2.317 4.842 2.66h.086c2.335.344 4.929.043 6.961-.858l6.356-2.917 8.604 4.033.605 6.349-2.853 3.046c-.692-.343-1.297-.772-1.687-1.244l-.043-.043c-1.037-1.201-1.037-2.617.043-3.904l.13-.129 3.805-4.118" stroke="#D6DBDE" stroke-miterlimit="10"/>
  </g>
  <rect x=".5" y=".5" width="319" height="200" rx="4.5" stroke="#EAEEF1"/>
</svg>
