<svg width="320" height="201" fill="none" xmlns="http://www.w3.org/2000/svg">
  <rect x=".5" y=".5" width="319" height="200" rx="4.5" fill="#F9FAFB" stroke="#EAEEF1"/>
  <mask id="a" maskUnits="userSpaceOnUse" x="0" y="0" width="320" height="201">
    <rect x=".5" y=".5" width="319" height="200" rx="4.5" fill="#F9FAFB" stroke="#EAEEF1"/>
  </mask>
  <g mask="url(#a)">
    <mask id="b" maskUnits="userSpaceOnUse" x="12" y="19" width="270" height="170">
      <rect x="12.682" y="19.906" width="268.307" height="168.158" rx="4.5" fill="#F9FAFB" stroke="#EAEEF1"/>
    </mask>
    <g clip-path="url(#clip0)">
      <path d="M246.614 48.425c24.149-6.314 40.769-22.734 37.124-36.675-3.645-13.94-26.176-20.122-50.325-13.807-24.148 6.315-40.769 22.735-37.123 36.675 3.645 13.94 26.176 20.122 50.324 13.807zM147.811 50.952c24.148-6.315 40.769-22.735 37.124-36.675C181.289.337 158.758-5.845 134.61.469c-24.148 6.315-40.77 22.735-37.124 36.676 3.646 13.94 26.177 20.122 50.325 13.807zM61.11 97.672c24.149-6.315 40.77-22.735 37.124-36.675-3.645-13.94-26.176-20.123-50.325-13.808C23.761 53.504 7.14 69.924 10.786 83.864c3.645 13.94 26.176 20.122 50.324 13.808zM37.376 161.294c24.148-6.315 40.77-22.735 37.124-36.675-3.646-13.941-26.177-20.122-50.325-13.808-24.148 6.315-40.77 22.735-37.124 36.675 3.646 13.941 26.177 20.123 50.325 13.808zM90.493 204.542c24.148-6.315 40.769-22.735 37.123-36.675-3.645-13.941-26.176-20.123-50.325-13.808-24.148 6.315-40.769 22.735-37.123 36.675 3.645 13.941 26.176 20.122 50.325 13.808zM189.296 202.015c24.148-6.315 40.769-22.734 37.123-36.675-3.645-13.94-26.176-20.122-50.324-13.807-24.149 6.315-40.769 22.735-37.124 36.675 3.645 13.94 26.176 20.122 50.325 13.807zM275.894 155.235c24.148-6.314 40.769-22.734 37.123-36.675-3.645-13.94-26.176-20.122-50.324-13.807-24.149 6.315-40.77 22.735-37.124 36.675 3.645 13.94 26.176 20.122 50.325 13.807zM299.71 91.592c24.148-6.315 40.769-22.735 37.123-36.675-3.645-13.94-26.176-20.122-50.325-13.808-24.148 6.315-40.769 22.735-37.123 36.675 3.645 13.94 26.176 20.123 50.325 13.808z" stroke="#D6DBDE" stroke-miterlimit="10"/>
      <path d="M270.717 120.144c2.525-.59 4.797-.505 6.985-.169 7.995 1.347 10.015 6.733 6.648 11.698-3.871 5.723-14.391 9.678-22.554 8.5-8.163-1.178-11.109-6.48-7.574-11.698 1.599-2.356 4.123-4.46 7.742-6.059 1.094-.421 2.273-.758 3.367-1.178 0 0 0 .084.084.084-1.263.757-2.609 1.599-3.872 2.356.085 0 .085.084.169.084.252-.084.505-.252.757-.336 4.124-2.104 9.089-2.693 12.54-1.515.757.252 1.346.589 1.599 1.178-3.366.168-6.312 1.178-8.921 2.777-1.683 1.01-2.777 2.188-3.366 3.535.757-.926 1.599-1.767 2.945-2.356 1.515-.674 3.198-.842 4.124-.421-1.515.421-2.693 1.094-3.45 1.935-1.431 1.684-1.095 3.367 1.009 4.293 2.609 1.178 7.322.336 10.099-1.768 2.357-1.767 3.451-3.619 3.198-5.554-.504-3.367-4.965-5.639-10.772-5.386h-.757zM233.687 13.515l-5.638 5.723 10.94 2.945 6.733-6.732-12.035-1.936zM247.405 15.787l-6.817 6.817 12.54 3.366 7.911-7.995-13.634-2.188zM239.41 23.698l-6.817 6.901 11.361 4.46 7.995-7.995-12.539-3.366zM226.87 20.416l-5.638 5.638 9.93 3.956 6.733-6.733-11.025-2.861zM295.743 75.727c9.084-2.375 15.342-8.53 13.978-13.746-1.364-5.216-9.834-7.52-18.918-5.144-9.083 2.375-15.341 8.53-13.977 13.746 1.364 5.217 9.834 7.52 18.917 5.144z" fill="#fff" stroke="#D6DBDE" stroke-miterlimit="10"/>
      <path d="M300.846 64.347l-7.322 2.777-7.743 1.178 7.322-2.777 7.743-1.178zm7.742-2.104l-15.738 2.44-14.811 5.639 15.737-2.44 14.812-5.64z" fill="#D6DBDE"/>
      <path d="M148.519 25.886c2.609-2.609 6.901-3.114 7.069-3.114.084-2.272-2.272-3.198-3.198-3.45-2.02-.758-5.302-.253-6.396-.505-1.094-.337-1.936-1.683-3.787-2.188-2.441-.59-5.723-.253-8.5 1.01-5.723 2.524-8.584 7.742-8.669 10.94-.084 1.6-.084 3.366 1.852 3.871 1.851.421 3.366-.168 5.554.421 2.189.59 1.936 1.6 3.872 2.104 2.02.505 4.46-.42 6.901-1.346 2.861-1.094 4.881-2.357 4.965-2.44-.084-.085-2.777-2.189.337-5.303zM152.642 17.134c1.852-.59 3.788-1.684 4.797-2.946-1.514-.337-3.871-.168-5.806.42-1.684.506-3.788 1.6-4.713 2.778 1.515.673 3.871.42 5.722-.252zM55.34 75.606c3.013-.788 5.084-2.848 4.625-4.602-.458-1.754-3.272-2.537-6.285-1.75-3.013.789-5.084 2.85-4.625 4.603.458 1.754 3.273 2.537 6.285 1.749z" fill="#fff" stroke="#D6DBDE" stroke-miterlimit="10"/>
      <path d="M49.549 69.901c2.524-1.852 6.48-2.609 9.341-1.852l12.035 3.198c.252-1.094.252-2.188 0-3.198-.673-2.524-3.03-4.46-6.649-5.386-3.618-.925-7.995-.841-12.371.337-.42.084-.842.252-1.262.337L49.549 69.9z" fill="#fff" stroke="#D6DBDE" stroke-miterlimit="10"/>
      <path d="M52.157 77.139c-.673 0-1.43-.084-2.02-.253-2.272-.589-3.282-2.02-3.029-3.619l1.515-9.089c-3.03 1.178-5.639 2.862-7.574 4.797-2.61 2.61-3.703 5.47-2.946 7.995.505 1.936 2.02 3.535 4.292 4.545l9.762-4.376z" fill="#fff" stroke="#D6DBDE" stroke-miterlimit="10"/>
      <path d="M61.836 70.322c.42 1.094 0 2.525-1.263 3.787-.841.842-1.851 1.515-3.03 2.02l-13.465 5.89c.253.085.505.17.758.253 3.619.926 7.995.842 12.371-.336 4.376-1.179 8.248-3.283 10.857-5.807 1.094-1.094 1.935-2.273 2.524-3.45l-8.752-2.357zM18.747 131.421a29.559 29.559 0 013.787-2.525 30.004 30.004 0 014.376-2.02 32.958 32.958 0 014.713-1.346c1.599-.337 3.198-.421 4.965-.421 1.683 0 3.367.252 4.881.673 2.44.673 4.292 1.683 5.386 3.03 1.095 1.346 1.515 2.945 1.179 4.797-.337 1.767-1.515 3.619-3.45 5.554l-2.189 2.188-18.01-4.797c-.841.842-1.346 1.684-1.346 2.441-.085.757.168 1.431.757 2.02.59.589 1.347 1.01 2.357 1.515 1.01.505 2.103.757 3.366.925 1.262.169 2.525.337 3.871.337 1.347 0 2.609-.084 3.787-.252l-4.376 4.376c-1.43.168-3.03.168-4.713.084-1.767-.084-3.535-.421-5.47-.926-1.936-.505-3.366-1.178-4.46-1.935-1.431-1.094-2.105-2.525-2.105-4.208.085-1.683.842-3.367 2.357-4.881 1.851-1.852 4.04-3.283 6.564-4.293 2.525-1.009 5.302-1.599 8.332-1.683-1.01.337-1.851.674-2.693 1.094-.842.421-1.683 1.01-2.609 1.683l10.183 2.694c.673-.59 1.178-1.095 1.515-1.684.337-.505.42-1.01.42-1.346 0-.421-.167-.758-.336-1.094-.168-.337-.505-.589-.841-.842-.337-.252-.674-.421-.926-.589-.337-.168-.59-.252-.758-.337l-.336-.084c-1.515-.336-3.03-.505-4.629-.589-1.599-.084-3.198 0-4.797.253-1.599.252-3.03.505-4.46.841-1.6.337-3.03.842-4.293 1.347zM167.707 182.084c-.589-1.683-.252-3.619.926-5.47-4.629 2.609-5.134 4.797-.926 5.47zM194.638 169.629c2.019 1.094 3.198 2.524 3.619 4.292 3.618-2.862 1.346-4.208-3.619-4.292z" fill="#fff" stroke="#D6DBDE" stroke-miterlimit="10"/>
      <path fill-rule="evenodd" clip-rule="evenodd" d="M170.484 174.173c5.05-4.881 14.475-7.406 21.292-5.638.208-.016.412-.029.615-.042.863-.055 1.681-.106 2.499-.379 4.124 0 6.649.841 7.069 2.356.421 1.599-1.43 3.282-3.534 4.713-.084 1.767-1.094 3.787-2.946 5.639-.21.168-.421.357-.631.547-.21.189-.421.379-.631.547-.337.252-.842.336-1.263.252l-16.579-4.46c-.505-.168-.673.168-.673.252-.421 1.768.673 3.198 2.946 3.788 1.683.504 3.871.42 5.975-.253.252-.084.505-.084.757 0l5.807 1.515c.505.168.505.673-.084 1.01-5.134 2.861-11.95 4.039-17.252 2.609-2.609-.674-4.461-1.852-5.471-3.367-2.524-.168-5.049-.757-5.47-2.272-.421-1.515 1.262-3.45 4.881-5.47.275-.137.558-.284.848-.433.598-.309 1.221-.63 1.845-.914zm9.089.505l9.931 2.693c.421.169.589-.084.673-.252.421-1.683-.673-3.198-2.945-3.787s-5.218-.253-7.659.925c0 .024-.039.061-.085.104-.119.109-.278.257.085.317z" fill="#fff"/>
      <path d="M191.776 168.535l-.125.484.08.021.084-.007-.039-.498zm-21.292 5.638l.207.455.079-.035.062-.06-.348-.36zm21.907-5.68l.031.499-.031-.499zm2.499-.379v-.5h-.081l-.077.025.158.475zm7.069 2.356l.484-.127-.002-.007-.482.134zm-3.534 4.713l-.281-.413-.207.14-.012.249.5.024zm-2.946 5.639l.313.39.021-.017.02-.02-.354-.353zm-.631.547l.335.371-.335-.371zm-.631.547l.3.4.006-.005.006-.005-.312-.39zm-1.263.252l-.129.483.015.004.016.004.098-.491zm-16.579-4.46l-.158.474.014.005.014.004.13-.483zm-.673.252l.486.116.014-.057v-.059h-.5zm2.946 3.788l.143-.479-.009-.003-.009-.002-.125.484zm5.975-.253l.152.476.006-.002-.158-.474zm.757 0l-.158.474.016.006.016.004.126-.484zm5.807 1.515l.158-.474-.016-.006-.016-.004-.126.484zm-.084 1.01l.243.437.005-.003-.248-.434zm-17.252 2.609l.13-.483-.006-.001-.124.484zm-5.471-3.367l.416-.277-.136-.205-.246-.017-.034.499zm-5.47-2.272l-.482.134.482-.134zm4.881-5.47l-.223-.447-.011.005-.01.005.244.437zm.848-.433l-.229-.444.229.444zm20.865 2.284l.186-.464-.027-.011-.028-.007-.131.482zm-9.931-2.693l.131-.482-.024-.007-.024-.004-.083.493zm10.604 2.441l.448.223.024-.049.013-.053-.485-.121zm-2.945-3.787l-.126.484.126-.484zm-7.659.925l-.217-.45-.283.137v.313h.5zm-.085.104l.339.366-.339-.366zm12.414-6.31c-3.511-.911-7.662-.71-11.563.327-3.901 1.036-7.603 2.923-10.202 5.436l.695.719c2.449-2.368 5.986-4.185 9.764-5.189 3.778-1.004 7.749-1.182 11.055-.325l.251-.968zm.457-.057c-.202.013-.41.026-.621.042l.077.997c.203-.016.404-.028.607-.041l-.063-.998zm2.373-.355c-.747.249-1.5.3-2.373.355l.063.998c.853-.054 1.737-.107 2.626-.404l-.316-.949zm7.709 2.697c-.278-1-1.217-1.669-2.469-2.086-1.272-.424-2.994-.636-5.082-.636v1c2.036 0 3.638.209 4.765.584 1.146.382 1.68.892 1.823 1.406l.963-.268zm-3.735 5.261c1.063-.723 2.097-1.532 2.815-2.385.709-.842 1.195-1.831.922-2.869l-.967.255c.148.561-.082 1.213-.72 1.97-.628.746-1.572 1.494-2.612 2.202l.562.827zm-2.873 5.578c1.906-1.906 2.999-4.037 3.091-5.968l-.999-.048c-.076 1.604-1.003 3.513-2.799 5.309l.707.707zm-.65.565c.212-.191.412-.37.609-.528l-.625-.781c-.224.179-.445.379-.653.566l.669.743zm-.654.566c.224-.179.445-.378.654-.566l-.669-.743c-.213.191-.412.371-.609.528l.624.781zm-1.673.353c.535.106 1.191.009 1.661-.343l-.6-.8c-.203.152-.557.223-.864.162l-.197.981zm-16.611-4.468l16.58 4.46.259-.966-16.579-4.46-.26.966zm-.043-.231a.398.398 0 01-.017.115c-.006.018-.012.03-.016.038a.115.115 0 01-.033.036c-.016.011-.028.013-.026.013a.274.274 0 01.107.02l.316-.948c-.374-.125-.713-.085-.97.096a.88.88 0 00-.259.281.707.707 0 00-.102.349h1zm2.571 3.304c-1.066-.277-1.796-.736-2.213-1.274-.406-.525-.549-1.167-.372-1.914l-.972-.231c-.243 1.02-.05 1.977.554 2.757.593.766 1.546 1.317 2.752 1.63l.251-.968zm5.697-.245c-2.03.65-4.113.719-5.679.25l-.287.957c1.8.54 4.094.442 6.271-.255l-.305-.952zm1.068.002a1.657 1.657 0 00-1.073 0l.316.948c.15-.05.291-.05.441 0l.316-.948zm5.775 1.505l-5.807-1.515-.252.968 5.807 1.515.252-.968zm.038 1.928c.368-.21.68-.546.704-.975.026-.481-.314-.812-.71-.943l-.316.948c.057.019.063.036.052.022a.13.13 0 01-.025-.082c.002-.026.01-.02-.016.015a.655.655 0 01-.185.147l.496.868zm-17.631 2.657c5.45 1.471 12.401.258 17.626-2.654l-.486-.874c-5.042 2.81-11.725 3.954-16.879 2.563l-.261.965zm-5.756-3.571c1.101 1.651 3.08 2.881 5.762 3.573l.249-.968c-2.536-.655-4.26-1.781-5.179-3.16l-.832.555zm-5.536-2.416c.279 1.002 1.221 1.606 2.26 1.978 1.062.38 2.377.574 3.659.659l.067-.998c-1.243-.082-2.453-.267-3.389-.603-.961-.343-1.491-.791-1.633-1.304l-.964.268zm5.119-6.041c-1.832 1.023-3.212 2.044-4.085 3.03-.865.975-1.312 2.011-1.034 3.011l.964-.268c-.143-.515.042-1.204.818-2.08.767-.866 2.038-1.823 3.825-2.82l-.488-.873zm.863-.44c-.291.149-.571.294-.842.43l.447.894c.278-.139.564-.287.853-.436l-.458-.888zm1.867-.925c-.637.29-1.271.617-1.867.925l.458.888c.6-.309 1.213-.625 1.823-.903l-.414-.91zm19.358 3.171l-9.931-2.693-.261.965 9.93 2.693.262-.965zm.095.006a.853.853 0 01-.031.054c-.007.009-.004.002.011-.006a.096.096 0 01.027-.012.08.08 0 01.021-.004c.007 0-.013.002-.068-.02l-.372.929c.323.129.639.124.906-.036.234-.14.35-.356.401-.458l-.895-.447zm-2.624-3.079c1.059.274 1.791.751 2.211 1.302.412.541.549 1.184.375 1.88l.97.242c.247-.987.048-1.943-.55-2.728-.59-.775-1.541-1.35-2.755-1.664l-.251.968zm-7.315.892c2.347-1.134 5.171-1.448 7.315-.892l.251-.968c-2.4-.623-5.467-.264-8.001.959l.435.901zm.036.019c.018-.016.058-.053.093-.091a.546.546 0 00.153-.379h-1a.462.462 0 01.103-.289l-.028.026.679.733zm-.171-.542c-.069-.011-.038-.017.021.024a.396.396 0 01.131.159.433.433 0 01.036.248.365.365 0 01-.059.15l-.005.007.012-.012.035-.034-.679-.733c-.025.023-.08.073-.128.129a.685.685 0 00-.164.337.568.568 0 00.047.332c.051.111.13.186.2.236a.94.94 0 00.388.143l.165-.986z" fill="#D6DBDE"/>
      <path d="M89.019 188.649c-.59-.505-.59-.926-.084-1.431.589-.589.589-1.094.505-1.347.505-.336 2.103-1.43 2.693-2.693.589-1.262.673-3.534.757-5.723 0-.925.757-1.683 1.6-2.608.84-.842 1.766-1.852 2.187-3.114.421-1.347-.337-2.441-2.104-2.862a10.307 10.307 0 00-3.619-.168c-2.608.421-4.207 2.356-5.302 3.619-.168.168-.252.336-.42.505-1.094 1.262-1.852 1.851-2.189 2.02-.168.084-.925.336-1.767.673-.841.252-1.767.589-2.525.926-.925.42-2.104 1.094-3.198 1.683-.841.505-1.599.925-2.103 1.178-1.01.505-1.515 1.094-1.684 1.346-.252 0-.673.169-1.178.421-.673.337-1.346.421-2.609.253-.589-.084-1.094 0-1.43.168-.59.253-.842.673-1.01 1.01-.253.505-.59.673-1.263 1.094-.168.084-.336.168-.505.337-.336.168-.505.42-.505.589-.084.589 1.01 1.01 2.104 1.43.673.253 1.263.674 1.852 1.094.589.421 1.094.842 1.767 1.095.084 0 .168.084.337.084 1.094.252 2.104-.084 2.44-.253.421.084 1.936.253 3.367.589 1.43.337 2.524.926 2.861 1.01-.084.169-.084.674.168 1.01.169.168.505.337.842.421.42.084 1.262.252 2.356-.084 1.094-.337 3.282-.505 4.882-.673.336 0 .673-.085 1.01-.085.925-.084 1.598-.336 1.935-.757.168-.084.168-.505-.168-.757z" fill="#fff" stroke="#D6DBDE" stroke-miterlimit="10"/>
      <path d="M74.964 184.777c.337-.421 0-1.01-.336-1.683-.337-.589-.674-1.178-.505-1.599.336-.842 2.02-2.104 3.282-2.609.673-.252 1.43-.757 2.104-1.178.757-.505 1.599-.926 2.188-1.094.842-.253 2.02-.926 2.693-1.431.168.421.42 1.01 1.094 1.178.084 0 .169 0 .337.085.505 0 1.43-.085 2.272-.169.757-.084 1.683-.168 1.936-.168 0 .589-1.515 5.134-2.525 6.396-.757 1.01-1.852 1.851-2.272 2.104-.084 0-.169-.084-.253-.084-.673-.169-1.094 0-1.346.168-.505.421-1.852 1.683-2.188 2.02-.505.168-2.778.926-4.713.589a11.585 11.585 0 01-2.104-.421c-.505-.168-.842-.252-.926-.336l-.168-1.01c.42-.085 1.094-.253 1.43-.758zM88.346 172.827h-.085c0-.084.085-.084.085-.169.336-.42.252-.841-.169-.925h-.084c-.252 0-.926.168-.926.168s1.178-.589 1.515-.505c.42.084.42.673-.168 1.178 0 .169-.084.253-.168.253zM91.543 174.089a1.16 1.16 0 00.337-.252c.505-.505.42-.926-.084-1.094-.505-.169-1.347.168-1.767.589l-.084.084-.085-.084c.085-.169.169-.253.337-.421.59-.589 1.515-.926 2.188-.758.59.169.673.758.084 1.347-.252.252-.589.505-.925.589zM90.029 175.099s-.084 0-.337.084c-.168 0-.337 0-.589.084h-.168c-.674.084-2.104.253-2.44.169-.17 0-.253-.085-.422-.337 0-.084-.084-.084-.084-.168-.252-.337-.337-.674-.252-.842.252-.084.841-.168 1.178-.252.673-.169 1.262-.253 1.43-.169.169.084.59.421.926.674.169.084.253.168.337.252.337.337.42.505.42.505zM80.687 188.733c.926-.674 2.104-1.515 2.61-2.104.083-.169.252-.253.336-.421.252-.253.589-.673.673-.758-.337.337-.842 1.01-.42 1.431.168.084.336.253.588.253.674.168 1.768.168 2.273 0 .336-.085.673-.253.925-.337 0 .084-.084.168-.168.252-.505.421-.842 1.179-.42 1.515l.083.084c.169.169.505.505.421.59h-.084c-.253.084-.926.084-1.599.168-1.178.084-2.525.168-3.282.421-1.094.336-2.104.42-2.525.336-.084 0-.084 0-.084-.084-.337-.168-.253-.673.673-1.346zM66.97 182.842c.083-.169.168-.337.336-.421.084-.084.841 0 1.094 0 .42 0 .841.084 1.178 0a3.723 3.723 0 001.347-.505c.252-.168.589-.253.757-.337h.084c.253.084.421.589.337 1.094 0 .084-.084.337-.084.589-.085.758-.253 1.852-.169 2.188.085.337.085 1.01-.42 1.431-.421.337-1.263.421-1.431.505h-.168c-.674-.168-1.684-1.01-2.189-1.431l-.084-.084c-.336-.252-.925-.505-1.515-.757-.505-.168-1.094-.505-1.178-.589 0-.084.337-.337.674-.505.252-.169.504-.337.673-.505.42-.253.589-.505.757-.673z" fill="#fff" stroke="#D6DBDE" stroke-miterlimit="10"/>
      <path d="M168.502 126.454c24.148-6.315 40.769-22.735 37.124-36.675-3.646-13.94-26.177-20.123-50.325-13.808-24.148 6.315-40.769 22.735-37.124 36.675 3.646 13.94 26.177 20.122 50.325 13.808z" fill="#fff" stroke="#0ABE65" stroke-miterlimit="10"/>
      <path d="M155.672 105.332s4.629-3.872 5.386-4.545c-.42-.505-.336-1.178.253-1.851.926-.926 2.777-1.431 4.124-1.094 1.346.336 1.599 1.43.673 2.356-.673.673-1.767 1.094-2.777 1.178-.589.674-4.124 4.881-4.124 4.881l-3.535-.925zm23.565-8.837c-.085 0-.169-.084-.253-.084h-.168c-3.703-1.094-5.891-3.114-6.565-5.555-4.376 1.179-9.089 1.431-12.96.337-.084 0-.252-.084-.337-.084-.084 0-.168-.084-.252-.084a5.735 5.735 0 01-.673-.253h-.085l-5.049 5.05c-5.639 5.638-5.975 11.698-1.767 15.653l.084.084s.084.085.168.085h.168c8.837-.505 18.263-4.124 23.986-9.847l5.049-5.05h-.084c-.337 0-.842-.168-1.262-.252z" fill="#1B8AFE"/>
      <path d="M213.994 49.198l-26.089 26.005M148.098 50.881l6.901 25.164M90.365 82.02l35.768 9.594M74.46 124.436l43.762-11.614M109.89 153.302l26.005-26.005M175.702 151.619l-6.901-25.164M233.519 120.396l-35.768-9.594M249.341 77.98l-43.679 11.614" stroke="#D6DBDE" stroke-miterlimit="10"/>
      <path d="M214.663 51.71c2.429-.634 4.102-2.28 3.737-3.673-.364-1.394-2.628-2.01-5.057-1.375-2.428.635-4.101 2.28-3.736 3.674.364 1.394 2.628 2.01 5.056 1.375zM148.768 53.402c2.428-.635 4.101-2.28 3.737-3.674-.365-1.394-2.629-2.01-5.057-1.374-2.429.635-4.102 2.28-3.737 3.674.364 1.394 2.628 2.009 5.057 1.374zM91.021 84.534c2.429-.635 4.102-2.28 3.737-3.674-.364-1.394-2.628-2.009-5.057-1.374-2.428.635-4.101 2.28-3.736 3.674.364 1.394 2.628 2.01 5.056 1.374zM75.117 126.97c2.428-.635 4.102-2.279 3.737-3.674-.365-1.394-2.629-2.009-5.057-1.374-2.428.635-4.101 2.28-3.737 3.674.365 1.394 2.629 2.009 5.057 1.374zM110.562 155.822c2.429-.635 4.102-2.28 3.737-3.674-.364-1.394-2.628-2.009-5.057-1.374-2.428.635-4.101 2.28-3.736 3.674.364 1.394 2.628 2.009 5.056 1.374zM176.377 154.152c2.428-.635 4.101-2.28 3.737-3.674-.365-1.394-2.629-2.009-5.057-1.374-2.429.635-4.102 2.28-3.737 3.674.365 1.394 2.629 2.009 5.057 1.374zM234.183 122.917c2.428-.635 4.101-2.28 3.737-3.674-.365-1.394-2.629-2.009-5.057-1.374-2.428.635-4.101 2.28-3.737 3.674.365 1.394 2.629 2.009 5.057 1.374zM250.006 80.502c2.428-.634 4.101-2.28 3.737-3.673-.365-1.394-2.629-2.01-5.057-1.375-2.428.635-4.101 2.28-3.737 3.674.365 1.394 2.629 2.01 5.057 1.374z" fill="#fff" stroke="#D6DBDE" stroke-miterlimit="10"/>
    </g>
  </g>
  <rect x=".5" y=".5" width="319" height="200" rx="4.5" stroke="#EAEEF1"/>
  <defs>
    <clipPath id="clip0">
      <path fill="#fff" d="M-13.907-5h351.614v212.5H-13.907z"/>
    </clipPath>
  </defs>
</svg>
